<?xml version="1.0" encoding="UTF-8"?>
<svg version="1.1" xmlns="http://www.w3.org/2000/svg" width="1024" height="764">
<path d="M0 0 C1.65 0.33 3.3 0.66 5 1 C42.56445313 26.04296875 42.56445313 26.04296875 44.81100464 27.54067993 C46.30295583 28.53530727 47.79491955 29.5299158 49.28689575 30.52450562 C53.02537999 33.01670955 56.76364321 35.50924379 60.50146484 38.00244141 C67.28131234 42.52426747 74.06263934 47.04378205 80.85223389 51.55096436 C83.82089689 53.52188652 86.78841287 55.49453204 89.75585938 57.46728516 C91.13711154 58.38483123 92.51892082 59.30153936 93.90136719 60.21728516 C105.4568547 67.87214983 116.72923144 75.86710396 127.92089844 84.04443359 C134.07922131 88.54096384 140.26150547 92.86807004 146.75 96.875 C150.63078153 99.31061811 153.88524065 101.57908271 156.875 105.0625 C157.57625 106.031875 158.2775 107.00125 159 108 C159.33 109.98 159.66 111.96 160 114 C158.68 115.98 157.36 117.96 156 120 C153.36 121.32 150.72 122.64 148 124 C145.03 123.67 142.06 123.34 139 123 C136.03 121.02 133.06 119.04 130 117 C129.98969254 117.91865845 129.97938507 118.83731689 129.96876526 119.78381348 C129.86923272 128.60357235 129.76655307 137.42328844 129.66066074 146.24297333 C129.6063724 150.77313067 129.55314507 155.30329436 129.50268555 159.83349609 C129.24857878 182.56665142 128.82618993 205.27985288 128 228 C148.65682618 216.56069168 167.90660187 203.39679544 186.09765625 188.3515625 C195.91281713 180.39903645 205.85400144 172.9951962 217 167 C218.98 167 220.96 167 223 167 C224.82807152 168.32027388 226.65612953 169.64056643 228.48413086 170.9609375 C230.10190986 172.12921414 231.71991769 173.29717398 233.33813477 174.46484375 C237.4090755 177.40298391 241.47710853 180.34485328 245.53515625 183.30078125 C253.96658538 189.43315417 262.48160221 195.41197677 271.10742188 201.26782227 C276.57059248 204.98868138 281.92329721 208.83089782 287.23168945 212.76831055 C294.89629328 218.43593576 302.74183753 223.84607467 310.56152344 229.29638672 C314.21740814 231.85052803 317.85921575 234.42440076 321.5 237 C329.39783754 242.58368369 337.31979565 248.13259584 345.24609375 253.67578125 C346.01937012 254.21799316 346.79264648 254.76020508 347.58935547 255.31884766 C349.28074293 256.49839941 350.97824294 257.66921155 352.68017578 258.83349609 C353.56044434 259.43887207 354.44071289 260.04424805 355.34765625 260.66796875 C356.14308838 261.21090576 356.93852051 261.75384277 357.75805664 262.31323242 C360.05742309 264.04320333 362.01603092 265.92024724 364 268 C364.33 270.64 364.66 273.28 365 276 C364.01 277.65 363.02 279.3 362 281 C360.02 281.99 358.04 282.98 356 284 C353.36 284 350.72 284 348 284 C344.37 281.36 340.74 278.72 337 276 C336.67 276 336.34 276 336 276 C336.00092179 277.12238256 336.00184359 278.24476513 336.00279331 279.40115929 C336.02503995 306.77138638 336.04144806 334.1416123 336.05181217 361.51184654 C336.056958 374.74813535 336.06396792 387.98441816 336.07543945 401.22070312 C336.08543878 412.76384346 336.09186588 424.30697946 336.09408849 435.850124 C336.09538671 441.95627481 336.09841593 448.06241321 336.10573006 454.16856003 C336.11257325 459.9288255 336.11460026 465.68907358 336.11310768 471.44934273 C336.11338031 473.55100792 336.11533578 475.65267376 336.11920547 477.7543354 C336.14100386 490.21611383 335.80620489 502.5621875 335 515 C342.59 515 350.18 515 358 515 C359.98 516.32 361.96 517.64 364 519 C364.66 520.65 365.32 522.3 366 524 C365.67 525.98 365.34 527.96 365 530 C360.25 534.875 360.25 534.875 358 536 C240.52 536 123.04 536 2 536 C1.67 539.3 1.34 542.6 1 546 C23.275 545.505 23.275 545.505 46 545 C47.98 545.99 49.96 546.98 52 548 C52.99 549.32 53.98 550.64 55 552 C55.33 553.65 55.66 555.3 56 557 C54.68 559.31 53.36 561.62 52 564 C49.03 565.485 49.03 565.485 46 567 C1.75304385 567.02296754 -42.49391166 567.04054938 -86.74087261 567.05106533 C-91.98325428 567.0523158 -97.22563593 567.05361015 -102.46801758 567.05493164 C-103.51153311 567.05519395 -104.55504865 567.05545626 -105.63018586 567.05572652 C-122.45184433 567.06005925 -139.27349933 567.06793342 -156.09515575 567.0771528 C-173.39920444 567.08655635 -190.70325133 567.09206969 -208.00730246 567.09408849 C-218.65571221 567.09544991 -229.30411213 567.09972453 -239.95251884 567.10791647 C-247.28808638 567.11326692 -254.62364896 567.11478578 -261.9592183 567.11350138 C-266.17004002 567.11287073 -270.38084478 567.11372647 -274.59166336 567.11920547 C-296.7453537 567.14664561 -318.85884987 566.75561284 -341 566 C-343.475 564.515 -343.475 564.515 -346 563 C-347.485 560.525 -347.485 560.525 -349 558 C-348.67 555.69 -348.34 553.38 -348 551 C-344.25 547.125 -344.25 547.125 -342 546 C-330.93360072 545.17039042 -319.9220468 544.93277985 -308.82421875 544.96875 C-307.47635947 544.97126502 -306.12849973 544.97354513 -304.78063965 544.97558594 C-301.52041439 544.98142471 -298.2602134 544.98961327 -295 545 C-295.01252808 544.29876007 -295.02505615 543.59752014 -295.03796387 542.87503052 C-295.89760015 494.53998254 -296.07480522 446.33772302 -295 398 C-295.67098221 397.94009384 -296.34196442 397.88018768 -297.03327942 397.81846619 C-298.366092 397.69357567 -298.366092 397.69357567 -299.72583008 397.56616211 C-300.60306229 397.48563095 -301.48029449 397.40509979 -302.3841095 397.3221283 C-309.50116235 396.44571389 -316.46811399 393.89463764 -323 391 C-333.41485584 385.51546638 -342.47649645 377.85800144 -350.515625 369.33203125 C-358.16025564 360.64388508 -364.01017541 351.03981656 -368.53125 340.39453125 C-369.80580253 336.95557092 -370.93754665 333.51003105 -372 330 C-372.36867188 328.80890625 -372.73734375 327.6178125 -373.1171875 326.390625 C-377.90333538 309.83125205 -378.99621747 292.82843317 -377.84326172 275.66699219 C-377.40169232 270.42010873 -376.7221574 265.21443496 -376 260 C-375.90879883 259.28118652 -375.81759766 258.56237305 -375.72363281 257.82177734 C-371.70245962 226.25204047 -361.8623796 195.98753758 -347.5234375 167.6640625 C-340.73251058 154.56333977 -332.41261098 143.42778972 -322 133 C-321.17757812 132.16597656 -320.35515625 131.33195313 -319.5078125 130.47265625 C-314.53695267 125.70031318 -309.47913105 122.1169666 -303.21484375 119.22265625 C-296.85438957 116.80367428 -290.29625532 115.09929712 -283.46484375 114.94140625 C-281.2385577 115.12594848 -279.17502632 115.49529776 -277 116 C-276.24847656 116.14179688 -275.49695313 116.28359375 -274.72265625 116.4296875 C-268.6899845 117.85719167 -263.53471491 120.68016455 -258.38842773 124.0546875 C-248.64993249 130.79358406 -240.82454159 139.35250004 -233.9375 148.9375 C-215.53893191 175.58203497 -204.19852689 205.86173164 -196 237 C-191 257.11804384 -191 257.11804384 -191 264 C-180.00107725 257.85222814 -169.50316616 250.9495679 -159 244 C-157.92363281 243.29101562 -156.84726562 242.58203125 -155.73828125 241.8515625 C-151.33594763 238.87172872 -147.65046232 235.76759749 -144.00390625 231.91015625 C-139.72435348 227.83081647 -134.78134152 224.46235076 -130 221 C-128.35 220.67 -126.7 220.34 -125 220 C-125 185.02 -125 150.04 -125 114 C-129.62 116.64 -134.24 119.28 -139 122 C-141.75078884 122.91692961 -143.35948913 123.10886083 -146.1875 123.0625 C-147.445625 123.041875 -148.70375 123.02125 -150 123 C-151.65 122.01 -153.3 121.02 -155 120 C-155.99 117.69 -156.98 115.38 -158 113 C-157.34 111.02 -156.68 109.04 -156 107 C-150.73939352 102.58693567 -145.22350997 98.82065445 -139.375 95.25 C-133.33995354 91.55159973 -127.58948928 87.61847204 -121.9206543 83.38330078 C-116.74821141 79.52422841 -111.48517134 75.80996209 -106.1875 72.125 C-98.99769304 67.11937754 -91.8587427 62.05259087 -84.78979492 56.87744141 C-70.48041272 46.4543633 -55.67530209 36.70514277 -40.98535156 26.83129883 C-31.90077782 20.72312322 -22.88030744 14.56107268 -14.0390625 8.10424805 C-9.56641261 5.00738354 -4.85708002 2.43845242 0 0 Z M0 26 C-1.98161698 27.35068483 -3.96023548 28.70546751 -5.9375 30.0625 C-6.48212891 30.43310547 -7.02675781 30.80371094 -7.58789062 31.18554688 C-10.90818398 33.46944808 -14.10118438 35.85632242 -17.25390625 38.3671875 C-22.27620999 42.30548717 -27.58873472 45.68793332 -33 49.0625 C-34.87559953 50.23993092 -36.75060634 51.41830661 -38.625 52.59765625 C-39.52089844 53.1611377 -40.41679687 53.72461914 -41.33984375 54.30517578 C-45.26832417 56.80806777 -49.14016356 59.39282344 -53 62 C-53 62.66 -53 63.32 -53 64 C-53.58773193 64.28214355 -54.17546387 64.56428711 -54.78100586 64.85498047 C-56.80792656 65.9008885 -58.62851984 67.02728429 -60.50390625 68.3203125 C-61.15657471 68.76922852 -61.80924316 69.21814453 -62.48168945 69.68066406 C-63.16835693 70.15729492 -63.85502441 70.63392578 -64.5625 71.125 C-65.27559326 71.61709961 -65.98868652 72.10919922 -66.72338867 72.61621094 C-70.79659624 75.43721805 -74.82370359 78.3102801 -78.8125 81.25 C-84.05058348 85.09598021 -89.48069916 88.5744925 -95 92 C-97.64 93.65 -100.28 95.3 -103 97 C-103 138.91 -103 180.82 -103 224 C-99.37 226.31 -95.74 228.62 -92 231 C-89.29696131 233.01192085 -86.63867363 235.03469067 -84 237.125 C-77.18671536 242.43227948 -70.18364944 247.36287027 -63.02416992 252.18945312 C-57.84204643 255.69816604 -52.7923614 259.33529416 -47.8125 263.125 C-41.42035405 267.98492841 -34.88773828 272.58085209 -28.25 277.09765625 C-21.84871154 281.45492426 -15.52237179 285.91976509 -9.18359375 290.3671875 C-5.66061751 292.83895848 -2.13152004 295.30163377 1.40234375 297.7578125 C2.28760742 298.37422607 3.17287109 298.99063965 4.08496094 299.62573242 C5.76006753 300.79186432 7.43640388 301.95623272 9.11425781 303.1184082 C20.26282976 310.89000264 20.26282976 310.89000264 25 315 C25.99 316.485 25.99 316.485 27 318 C27 320.31 27 322.62 27 325 C25.35 326.65 23.7 328.3 22 330 C20.35 330.33 18.7 330.66 17 331 C11.735171 329.18454172 7.5056687 327.26660981 3 324 C2.34 324 1.68 324 1 324 C0.97442286 331.43407447 0.95703878 338.86813738 0.94506836 346.30224609 C0.9400724 348.82568791 0.93327337 351.34912688 0.92456055 353.87255859 C0.78138541 372.9619963 0.78138541 372.9619963 2 392 C5.00528027 393.12762895 7.65981799 393.97308383 10.86959839 394.22705078 C11.86250885 394.21657715 12.85541931 394.20610352 13.87841797 394.1953125 C15.01334686 394.18870605 16.14827576 394.18209961 17.31759644 394.17529297 C19.13651901 394.15039795 19.13651901 394.15039795 20.9921875 394.125 C22.25209503 394.11742676 23.51200256 394.10985352 24.81008911 394.10205078 C29.51148928 394.073529 34.21258439 394.02709919 38.91381836 393.97924805 C43.52324038 393.9332812 48.13261176 393.90266592 52.7421875 393.875 C54.55503738 393.85010498 54.55503738 393.85010498 56.4045105 393.82470703 C62.64783967 393.78856524 68.02977455 394.13217889 74 396 C74.33 396.66 74.66 397.32 75 398 C75.33 436.28 75.66 474.56 76 514 C86.23 514 96.46 514 107 514 C107.74910149 425.86900703 108.2077316 337.74119508 107.6521225 146.8746376 C107.62527072 143.6574357 107.60159582 140.44022402 107.57867432 137.22299194 C107.5429763 132.33796946 107.49708998 127.4531577 107.44206238 122.56831551 C107.42371242 120.82882786 107.40845301 119.08930425 107.3966217 117.34976006 C107.37991197 115.01632684 107.35109699 112.68336043 107.31884766 110.35009766 C107.29886215 108.42068832 107.29886215 108.42068832 107.2784729 106.45230103 C106.99968407 102.99608335 106.2436964 100.2240065 105 97 C104.34257813 96.57332031 103.68515625 96.14664063 103.0078125 95.70703125 C95.86338139 91.01184278 88.91314301 86.09521578 81.99975586 81.06835938 C76.76451378 77.26409441 71.48958171 73.52287441 66.1875 69.8125 C61.09039088 66.24090534 56.09033298 62.5838777 51.1875 58.75 C45.31440058 54.17960788 39.22899262 50.06507459 33 46 C31.82424661 45.21283743 30.64981838 44.42369275 29.4765625 43.6328125 C20.44298466 37.54836544 11.26636545 31.72298523 2 26 C1.34 26 0.68 26 0 26 Z M-288 137 C-297.15488304 140.00160297 -297.15488304 140.00160297 -300.37890625 143.125 C-311.55791122 153.1814718 -320.76731135 163.80080813 -328.11523438 177.00390625 C-330.21551449 180.97153338 -332.16497791 185.00447247 -334.07519531 189.06640625 C-334.94973516 190.89490561 -335.87579186 192.69850542 -336.8046875 194.5 C-348.03006577 216.8509754 -353.2862517 243.39740817 -356.375 268.0625 C-357.97329586 284.58920876 -357.43721402 300.83482469 -353.51220703 317.01025391 C-350.70737423 327.58024342 -345.9979408 337.85649268 -340 347 C-336.71042185 351.38017703 -332.94848937 355.21603102 -329 359 C-328.29875 359.68578125 -327.5975 360.3715625 -326.875 361.078125 C-322.08774191 365.51792081 -316.8114893 369.03108699 -311 372 C-305.60086158 374.26728525 -300.88040939 375.15994152 -295 376 C-294.67 346.96 -294.34 317.92 -294 288 C-293.01 286.02 -292.02 284.04 -291 282 C-289.68 281.01 -288.36 280.02 -287 279 C-285.02 279.33 -283.04 279.66 -281 280 C-279.02 281.98 -279.02 281.98 -277 284 C-275.72632615 287.82102156 -275.82290927 291.43531329 -275.79467773 295.41870117 C-275.78477814 296.27745346 -275.77487854 297.13620575 -275.76467896 298.02098083 C-275.73307234 300.86161535 -275.70830979 303.7022666 -275.68359375 306.54296875 C-275.6630235 308.51166724 -275.64202701 310.48036132 -275.62062073 312.4490509 C-275.56540738 317.63248118 -275.51599482 322.81595127 -275.46777344 327.99945068 C-275.41755306 333.28808132 -275.36186979 338.57665409 -275.30664062 343.86523438 C-275.19906805 354.24344016 -275.09762104 364.62169617 -275 375 C-273.72476974 374.84863083 -272.44953949 374.69726166 -271.13566589 374.54130554 C-270.41834888 374.45616038 -269.70103186 374.37101522 -268.96197796 374.28328991 C-266.85988971 373.97976948 -265.10624154 373.46588735 -263.17578125 372.58203125 C-262.54567139 372.2998877 -261.91556152 372.01774414 -261.26635742 371.72705078 C-260.62158447 371.42524902 -259.97681152 371.12344727 -259.3125 370.8125 C-258.62841064 370.50296387 -257.94432129 370.19342773 -257.23950195 369.87451172 C-255.15423219 368.92769436 -253.07651992 367.96583476 -251 367 C-249.72670633 366.41244862 -248.45327494 365.82519557 -247.1796875 365.23828125 C-244.97497512 364.21977318 -242.7727887 363.19576283 -240.57421875 362.1640625 C-238 361 -238 361 -235 360 C-235 348.45 -235 336.9 -235 325 C-239.29 326.98 -243.58 328.96 -248 331 C-250.31 330.67 -252.62 330.34 -255 330 C-256.485 329.01 -256.485 329.01 -258 328 C-259.1577506 324.52674819 -259.06866652 321.63932552 -259 318 C-258.34 316.68 -257.68 315.36 -257 314 C-256.27018921 313.55684448 -256.27018921 313.55684448 -255.52563477 313.10473633 C-244.12757032 306.14466722 -233.38358727 298.70661718 -222.88330078 290.46142578 C-218.6725585 287.19392471 -214.32937729 284.10745551 -210 281 C-210.49865982 272.41757133 -212.07361936 264.29003729 -214.0625 255.9375 C-214.21550568 255.28992737 -214.36851135 254.64235474 -214.52615356 253.97515869 C-221.96360238 222.62919644 -232.32286224 191.9316493 -249.85888672 164.69580078 C-252.9030572 160.17187948 -256.36458715 156.0541515 -260 152 C-260.70769531 151.18660156 -261.41539062 150.37320313 -262.14453125 149.53515625 C-265.28562371 146.13372099 -268.2204284 143.45569161 -272.234375 141.109375 C-275.12732631 139.65610838 -278.02787408 138.28238936 -281 137 C-283.31 137 -285.62 137 -288 137 Z M218 193 C213.00290635 196.11784476 208.28607495 199.52647623 203.65600586 203.15893555 C194.27992549 210.50403902 184.49413702 217.13418621 174.52978516 223.64355469 C168.771541 227.42069366 163.19164334 231.25612696 157.85961914 235.61938477 C155.14818365 237.63240402 152.10462594 238.70170188 149 240 C147.0271986 241.36448576 145.15366235 242.82547714 143.265625 244.3046875 C139.0277189 247.47581034 134.49321264 250.20826126 130 253 C129.34 254.32 128.68 255.64 128 257 C128.00222061 258.08337646 128.00444122 259.16675293 128.00672913 260.28295898 C128.0354721 274.85529635 128.05224168 289.42763837 128.0625 304 C128.06335602 305.20698547 128.06421204 306.41397095 128.06509399 307.65753174 C128.0942306 354.44004319 127.84442731 401.21889331 127.5 448 C127.49402628 448.81270103 127.48805257 449.62540207 127.48189783 450.46273041 C127.32852798 471.30854458 127.16815421 492.15429965 127 513 C127.33 513.33 127.66 513.66 128 514 C145.16 514 162.32 514 180 514 C180.33 480.01 180.66 446.02 181 411 C182.98 409.02 182.98 409.02 185 407 C193.33676747 406.95351833 201.67348015 406.91805074 210.01034546 406.89637566 C213.88210653 406.8859691 217.75377848 406.87186753 221.62548828 406.84912109 C225.36671822 406.82728051 229.10786281 406.81540788 232.84915161 406.81024551 C234.27158958 406.80656979 235.69402324 406.79939233 237.11642456 406.78853989 C244.39849159 406.73522454 251.03435354 406.75326805 258 409 C259.98 411.475 259.98 411.475 262 414 C262.82307954 436.27100263 263.13588802 458.50326385 263.06866455 480.78814697 C263.05626306 485.3635595 263.05198165 489.93898715 263.04621124 494.51441193 C263.03675386 501.34297078 263.01750415 508.1714359 263 515 C279.83 515 296.66 515 314 515 C314.33 514.34 314.66 513.68 315 513 C315 428.52 315 344.04 315 257 C311.7 255.68 308.4 254.36 305 253 C302.50542796 251.23928374 300.28443283 249.54702948 298 247.5625 C296.69949096 246.48220495 295.3959802 245.40551563 294.08984375 244.33203125 C293.41937012 243.7798291 292.74889648 243.22762695 292.05810547 242.65869141 C279.91459359 232.87185633 266.71691544 224.40171954 253.7265625 215.8046875 C248.22317899 212.15940044 242.77597915 208.43887011 237.34716797 204.68383789 C231.61076794 200.7191306 225.81721431 196.84509052 220 193 C219.34 193 218.68 193 218 193 Z M-118.875 241.9375 C-121.30315967 242.97607918 -123.05249434 244.04542205 -125.05859375 245.78125 C-125.80238281 246.4928125 -126.54617188 247.204375 -127.3125 247.9375 C-133.84192876 254.0594606 -141.31657975 258.65622955 -148.78857422 263.53759766 C-157.85106949 269.53057035 -166.51239921 276.07731265 -175.0625 282.7734375 C-177.97022491 284.97743111 -180.95686618 286.98877991 -184 289 C-185.67288824 290.22068564 -187.33955116 291.44994672 -189 292.6875 C-194.43885495 296.66805732 -200.04773067 300.31747499 -205.73828125 303.921875 C-208.85257852 305.90607398 -211.92750367 307.95166912 -215 310 C-215.33 387.55 -215.66 465.1 -216 545 C-215.34 545.33 -214.68 545.66 -214 546 C-187.27 545.505 -187.27 545.505 -160 545 C-158.77598615 541.32795845 -158.86829639 537.95439484 -158.88647461 534.13208008 C-158.88632858 533.33184921 -158.88618256 532.53161835 -158.8860321 531.70713806 C-158.88672895 529.06124158 -158.89451071 526.41541544 -158.90234375 523.76953125 C-158.90420874 521.93535907 -158.90563226 520.1011864 -158.90663147 518.26701355 C-158.91045028 513.43863551 -158.92027516 508.61028754 -158.93133545 503.78192139 C-158.94156323 498.85526944 -158.94613202 493.92861263 -158.95117188 489.00195312 C-158.96189797 479.33462221 -158.97896679 469.6673136 -159 460 C-157.515 457.525 -157.515 457.525 -156 455 C-154.02 454.01 -154.02 454.01 -152 453 C-128.57 453 -105.14 453 -81 453 C-79.35 454.32 -77.7 455.64 -76 457 C-75.67 457.66 -75.34 458.32 -75 459 C-74.67 487.38 -74.34 515.76 -74 545 C-55.85 545 -37.7 545 -19 545 C-18.97794272 516.10734343 -18.95948309 487.21469324 -18.94893467 458.32203034 C-18.94768401 454.90877867 -18.94638968 451.49552703 -18.94506836 448.08227539 C-18.94480605 447.40277602 -18.94454374 446.72327664 -18.94427348 446.02318638 C-18.93992556 435.02970218 -18.93204283 424.03622323 -18.9228472 413.04274214 C-18.91348627 401.75726533 -18.90801404 390.47179112 -18.90591151 379.18631023 C-18.9046082 372.84961523 -18.90154633 366.51293211 -18.89426994 360.17624092 C-18.88747454 354.20998894 -18.88539022 348.24375373 -18.88689232 342.27749825 C-18.88661758 340.08981231 -18.88463337 337.9021258 -18.88079453 335.71444321 C-18.87580229 332.72229248 -18.87702208 329.73020462 -18.87974548 326.73805237 C-18.87683264 325.87713173 -18.8739198 325.01621109 -18.87091869 324.12920195 C-18.8842773 318.6803255 -19.31571265 313.40690858 -20 308 C-20.93199219 307.39414062 -21.86398437 306.78828125 -22.82421875 306.1640625 C-29.8963741 301.52929332 -36.76796558 296.7559934 -43.42993164 291.5480957 C-49.78973595 286.58020411 -56.3393052 282.0162539 -63.1875 277.75 C-68.31165001 274.52315097 -73.16697253 271.00831769 -78.02563477 267.40161133 C-82.83805526 263.83356342 -87.71534979 260.37022315 -92.625 256.9375 C-99.91540804 251.83030687 -107.00271367 246.50047552 -114 241 C-116.18708882 240.8966598 -116.18708882 240.8966598 -118.875 241.9375 Z M-236 383 C-236.60360352 383.28198242 -237.20720703 383.56396484 -237.82910156 383.85449219 C-263.10740953 395.62148191 -263.10740953 395.62148191 -275 398 C-275 446.18 -275 494.36 -275 544 C-274.67 544.33 -274.34 544.66 -274 545 C-261.13 545 -248.26 545 -235 545 C-235 491.54 -235 438.08 -235 383 C-235.33 383 -235.66 383 -236 383 Z M2 414 C2 447.33 2 480.66 2 515 C19.66981104 515 37.34686646 514.76752755 55 514 C55 481 55 448 55 414 C37.51 414 20.02 414 2 414 Z M202 427 C202 455.71 202 484.42 202 514 C215.2 514 228.4 514 242 514 C242 485.29 242 456.58 242 427 C228.8 427 215.6 427 202 427 Z M-139 473 C-139 496.43 -139 519.86 -139 544 C-138.67 544.33 -138.34 544.66 -138 545 C-123.81 545 -109.62 545 -95 545 C-95 521.24 -95 497.48 -95 473 C-109.52 473 -124.04 473 -139 473 Z " fill="#000000" transform="translate(510,175)"/>
<path d="M0 0 C24.42 0 48.84 0 74 0 C75.98 1.65 77.96 3.3 80 5 C81.13502438 8.40507313 81.12016228 10.99220712 81.11352539 14.58276367 C81.11367142 15.24644455 81.11381744 15.91012543 81.1139679 16.59391785 C81.11327182 18.78530152 81.1054937 20.97659995 81.09765625 23.16796875 C81.09579099 24.68825738 81.09436759 26.20854661 81.09336853 27.72883606 C81.08955188 31.72864443 81.07972885 35.72841644 81.06866455 39.72821045 C81.05843213 43.81033842 81.05386698 47.89247227 81.04882812 51.97460938 C81.03810583 59.98308959 81.02103961 67.99154027 81 76 C80.01 78.31 79.02 80.62 78 83 C76.68 84.32 75.36 85.64 74 87 C50.24 87 26.48 87 2 87 C0.35 86.01 -1.3 85.02 -3 84 C-3.66 82.68 -4.32 81.36 -5 80 C-5 55.58 -5 31.16 -5 6 C-4.01 4.35 -3.02 2.7 -2 1 C-1.34 0.67 -0.68 0.34 0 0 Z M17 21 C17 35.85 17 50.7 17 66 C31.19 66 45.38 66 60 66 C60 51.15 60 36.3 60 21 C45.81 21 31.62 21 17 21 Z " fill="#000000" transform="translate(474,296)"/>
<path d="M0 0 C0.96647964 -0.00021904 0.96647964 -0.00021904 1.95248413 -0.0004425 C4.07350072 0.00025189 6.19442852 0.00802203 8.31542969 0.01586914 C9.78944857 0.017735 11.26346807 0.01915811 12.73748779 0.02015686 C16.6106946 0.02396878 20.48386371 0.03378774 24.35705566 0.04486084 C28.31192515 0.05510346 32.26680075 0.05966059 36.22167969 0.06469727 C43.97690518 0.07541121 51.73209964 0.0924717 59.48730469 0.11352539 C61.79730469 1.43352539 64.10730469 2.75352539 66.48730469 4.11352539 C67.47730469 6.09352539 67.47730469 6.09352539 68.48730469 8.11352539 C69.38594592 31.12208689 69.61379147 54.08903994 69.48730469 77.11352539 C68.16730469 78.76352539 66.84730469 80.41352539 65.48730469 82.11352539 C64.49730469 82.60852539 64.49730469 82.60852539 63.48730469 83.11352539 C39.06730469 83.11352539 14.64730469 83.11352539 -10.51269531 83.11352539 C-11.83269531 81.79352539 -13.15269531 80.47352539 -14.51269531 79.11352539 C-14.51269531 55.68352539 -14.51269531 32.25352539 -14.51269531 8.11352539 C-13.85269531 6.46352539 -13.19269531 4.81352539 -12.51269531 3.11352539 C-11.85269531 2.45352539 -11.19269531 1.79352539 -10.51269531 1.11352539 C-6.97190891 0.01790848 -3.69370086 -0.00704905 0 0 Z M7.48730469 21.11352539 C7.48730469 34.97352539 7.48730469 48.83352539 7.48730469 63.11352539 C20.68730469 63.11352539 33.88730469 63.11352539 47.48730469 63.11352539 C47.48730469 49.25352539 47.48730469 35.39352539 47.48730469 21.11352539 C34.28730469 21.11352539 21.08730469 21.11352539 7.48730469 21.11352539 Z " fill="#000000" transform="translate(704.5126953125,450.886474609375)"/>
<path d="M0 0 C0.66368088 -0.00014603 1.32736176 -0.00029205 2.01115417 -0.0004425 C4.20253784 0.00025357 6.39383628 0.00803169 8.58520508 0.01586914 C10.10549371 0.0177344 11.62578294 0.0191578 13.14607239 0.02015686 C17.14588076 0.02397351 21.14565277 0.03379654 25.14544678 0.04486084 C29.22757475 0.05509326 33.3097086 0.05965841 37.3918457 0.06469727 C45.40032592 0.07541956 53.4087766 0.09248578 61.41723633 0.11352539 C63.39723633 1.10352539 65.37723633 2.09352539 67.41723633 3.11352539 C68.40723633 4.43352539 69.39723633 5.75352539 70.41723633 7.11352539 C70.41723633 30.87352539 70.41723633 54.63352539 70.41723633 79.11352539 C69.09723633 81.09352539 67.77723633 83.07352539 66.41723633 85.11352539 C65.42723633 85.60852539 65.42723633 85.60852539 64.41723633 86.11352539 C39.99723633 86.11352539 15.57723633 86.11352539 -9.58276367 86.11352539 C-11.56276367 84.46352539 -13.54276367 82.81352539 -15.58276367 81.11352539 C-15.91276367 80.45352539 -16.24276367 79.79352539 -16.58276367 79.11352539 C-16.58276367 56.34352539 -16.58276367 33.57352539 -16.58276367 10.11352539 C-15.59276367 8.13352539 -14.60276367 6.15352539 -13.58276367 4.11352539 C-9.00383034 0.48195758 -5.79611872 -0.01071371 0 0 Z M5.41723633 21.11352539 C5.41723633 35.63352539 5.41723633 50.15352539 5.41723633 65.11352539 C19.93723633 65.11352539 34.45723633 65.11352539 49.41723633 65.11352539 C49.41723633 50.59352539 49.41723633 36.07352539 49.41723633 21.11352539 C34.89723633 21.11352539 20.37723633 21.11352539 5.41723633 21.11352539 Z " fill="#000000" transform="translate(366.582763671875,502.886474609375)"/>
</svg>
