<?xml version="1.0" encoding="UTF-8"?>
<svg version="1.1" xmlns="http://www.w3.org/2000/svg" width="850" height="535">
<path d="M0 0 C1.33879481 -0.00576172 1.33879481 -0.00576172 2.70463598 -0.01163983 C3.68108371 -0.01077335 4.65753144 -0.00990687 5.6635685 -0.00901413 C6.70405865 -0.01198525 7.74454881 -0.01495637 8.81656897 -0.01801753 C12.31413036 -0.02671114 15.81165755 -0.02821333 19.3092289 -0.02970505 C21.81236787 -0.03433269 24.31550613 -0.03935727 26.81864357 -0.04475021 C33.626445 -0.05787991 40.43423302 -0.06435672 47.24204397 -0.06876087 C51.49284013 -0.07152423 55.74363401 -0.07576172 59.99442863 -0.08026505 C71.76408622 -0.09245574 83.533742 -0.10275602 95.30340576 -0.10614014 C96.05649677 -0.1063597 96.80958779 -0.10657927 97.58549974 -0.10680549 C98.34038632 -0.10702377 99.0952729 -0.10724204 99.87303483 -0.10746694 C101.4027102 -0.1079104 102.93238556 -0.10835697 104.46206093 -0.10880661 C105.60021728 -0.10913875 105.60021728 -0.10913875 106.76136668 -0.10947761 C119.05965293 -0.11342671 131.35787998 -0.13088504 143.65614335 -0.15416613 C156.28305989 -0.17787648 168.9099467 -0.19034181 181.53688586 -0.19150805 C188.62630987 -0.1924249 195.71565668 -0.19817974 202.80505943 -0.21632767 C209.47152164 -0.23333291 216.13781223 -0.23498369 222.8042984 -0.22618866 C225.25287264 -0.22541614 227.70145464 -0.2297891 230.15000916 -0.23964691 C233.48909645 -0.25230313 236.82765909 -0.24652373 240.16674232 -0.23606491 C241.13872861 -0.24412132 242.1107149 -0.25217772 243.11215532 -0.26047826 C247.23836318 -0.23019009 250.14670023 -0.02519262 254.02422619 1.51056862 C257.03596505 3.44931898 259.39313925 5.62307062 261.91738319 8.16609573 C262.41741356 8.66568802 262.91744392 9.1652803 263.43262672 9.68001175 C265.07140234 11.32086427 266.6993082 12.97206426 268.3272953 14.62361526 C269.47193503 15.77385897 270.61724541 16.92343565 271.76319313 18.07237625 C274.77145772 21.09206071 277.77061225 24.12063621 280.7679081 27.15120316 C283.81028544 30.22421355 286.86110648 33.28881484 289.91127968 36.35408401 C295.28332079 41.75478439 300.64790329 47.16279616 306.00712013 52.57622147 C306.84367638 53.41943954 307.68023262 54.26265762 308.54213905 55.13142776 C309.4134597 56.02435532 310.28478035 56.91728287 311.18250465 57.83726883 C313.51660585 60.24606822 313.51660585 60.24606822 316.54213905 62.13142776 C316.54213905 62.79142776 316.54213905 63.45142776 316.54213905 64.13142776 C317.20213905 64.13142776 317.86213905 64.13142776 318.54213905 64.13142776 C318.95463905 64.62771683 319.36713905 65.12400589 319.79213905 65.63533401 C320.65838905 66.65433792 320.65838905 66.65433792 321.54213905 67.69392776 C322.37745155 68.68586136 322.37745155 68.68586136 323.22963905 69.69783401 C325.08784078 71.65334022 326.92280015 73.34356768 328.97011757 75.08406448 C334.53896437 79.93218755 339.76378085 85.12917261 345.0069828 90.32283401 C345.80499904 91.11286473 345.80499904 91.11286473 346.61913681 91.91885567 C349.42451223 94.69772676 352.22635579 97.48010892 355.02578163 100.26497269 C357.33402224 102.5597952 359.64935075 104.8470948 361.97109413 107.12825394 C364.79248654 109.9003648 367.6014382 112.68451803 370.40185165 115.47781563 C371.46573659 116.5349978 372.53386411 117.58792878 373.60633087 118.63640404 C375.10206387 120.10051297 376.58124371 121.57962219 378.05751991 123.06331253 C378.9016494 123.89935516 379.74577888 124.7353978 380.61548805 125.59677505 C382.54213905 128.13142776 382.54213905 128.13142776 383.36930275 131.28021622 C383.54213905 134.13142776 383.54213905 134.13142776 382.79213905 136.81892776 C381.54213905 139.13142776 381.54213905 139.13142776 378.54213905 142.13142776 C374.25213905 142.13142776 369.96213905 142.13142776 365.54213905 142.13142776 C365.54213905 230.24142776 365.54213905 318.35142776 365.54213905 409.13142776 C368.84213905 409.13142776 372.14213905 409.13142776 375.54213905 409.13142776 C378.54213905 410.44392776 378.54213905 410.44392776 380.54213905 412.13142776 C381.20213905 413.12142776 381.86213905 414.11142776 382.54213905 415.13142776 C382.79974185 417.82595298 382.63113959 420.41691151 382.54213905 423.13142776 C377.79213905 428.00642776 377.79213905 428.00642776 375.54213905 429.13142776 C374.01877002 429.2262673 372.49128169 429.2581444 370.96496361 429.25907826 C369.99276013 429.26209423 369.02055664 429.2651102 368.01889244 429.26821756 C366.94103818 429.26644809 365.86318393 429.26467862 364.75266743 429.26285553 C363.61051711 429.26490816 362.46836679 429.2669608 361.29160586 429.26907563 C358.09762925 429.27378297 354.90368797 429.27396568 351.70970945 429.27229804 C348.24384211 429.27156953 344.77798245 429.27658379 341.31211835 429.28087306 C334.42738133 429.28846944 327.54265206 429.29064695 320.65791129 429.29120212 C312.41585186 429.29211414 304.17379964 429.29877684 295.93174331 429.30554894 C276.008629 429.32162764 256.08551544 429.32751421 236.16239581 429.33229769 C226.74252185 429.33463163 217.32264851 429.33823404 207.90277503 429.34199307 C175.67470796 429.35482982 143.44664124 429.36554923 111.21857166 429.36899567 C109.19455434 429.3692173 107.17053701 429.36943909 105.14651968 429.36966102 C103.11753852 429.36988166 101.08855737 429.37010214 99.05957621 429.37032247 C94.9889038 429.37076503 90.91823139 429.37121214 86.84755898 429.37166214 C85.33361784 429.37182623 85.33361784 429.37182623 83.78909203 429.37199363 C51.05017365 429.37562563 18.31127739 429.39155046 -14.42763252 429.4148525 C-49.01925005 429.43942833 -83.61085493 429.45316745 -118.20248145 429.45436358 C-121.99709269 429.45453505 -125.79170392 429.45475048 -129.58631516 429.45499802 C-130.98788457 429.45508167 -130.98788457 429.45508167 -132.41776852 429.45516701 C-147.47811828 429.45631939 -162.53844541 429.46735713 -177.59878753 429.48188507 C-192.72591953 429.49622552 -207.85302239 429.49950096 -222.98015932 429.49144509 C-231.9751609 429.48697731 -240.97006868 429.49089514 -249.965058 429.5066836 C-255.96718302 429.51639657 -261.96924195 429.5152908 -267.97136629 429.50524737 C-271.39542297 429.49982857 -274.81929887 429.49923048 -278.24334095 429.51175609 C-281.92601571 429.52272967 -285.60820546 429.51544553 -289.2908659 429.50336456 C-290.89711203 429.51475735 -290.89711203 429.51475735 -292.53580758 429.5263803 C-296.7011303 429.49662737 -299.73111633 429.45431096 -303.56986064 427.74880672 C-305.45786095 426.13142776 -305.45786095 426.13142776 -306.83286095 423.88142776 C-307.62583898 420.39232441 -307.1412357 417.616639 -306.45786095 414.13142776 C-304.47786095 412.48142776 -302.49786095 410.83142776 -300.45786095 409.13142776 C-273.06786095 409.13142776 -245.67786095 409.13142776 -217.45786095 409.13142776 C-217.45786095 369.86142776 -217.45786095 330.59142776 -217.45786095 290.13142776 C-213.34929712 285.43592625 -209.42751168 280.97820657 -205.02036095 276.63142776 C-204.15540001 275.77549026 -203.29043907 274.91955276 -202.3992672 274.03767776 C-201.75860313 273.40861526 -201.11793907 272.77955276 -200.45786095 272.13142776 C-200.44906158 270.55075264 -200.44906158 270.55075264 -200.44008446 268.93814468 C-200.38286602 259.00615472 -200.31010893 249.07438389 -200.22214603 239.14261723 C-200.17742274 234.03660854 -200.13817086 228.93068001 -200.1114254 223.824543 C-200.08541208 218.89662393 -200.04502347 213.96901298 -199.99467468 209.04128456 C-199.97799266 207.16147253 -199.9664867 205.28160719 -199.96024704 203.40173149 C-199.9506205 200.76808895 -199.92257879 198.13523706 -199.89023399 195.50178909 C-199.89238663 194.3365345 -199.89238663 194.3365345 -199.89458275 193.14773941 C-199.83522293 189.72918606 -199.53419862 187.2898013 -198.04021263 184.19031143 C-196.45786095 182.13142776 -196.45786095 182.13142776 -194.70786095 180.81892776 C-191.5892951 179.86603265 -188.6955127 180.0069027 -185.45786095 180.13142776 C-180.8680172 183.74470901 -180.8680172 183.74470901 -179.45786095 185.13142776 C-178.39937918 188.30687306 -178.30151981 190.64210263 -178.25253868 193.97981644 C-178.23259346 195.18083496 -178.21264824 196.38185349 -178.19209862 197.61926651 C-178.16702988 199.56468086 -178.16702988 199.56468086 -178.1414547 201.54939651 C-178.12087802 202.89033006 -178.09988135 204.23125722 -178.07848167 205.57217789 C-178.02333468 209.09844666 -177.973893 212.62477325 -177.92563438 216.15114212 C-177.87536545 219.7507427 -177.81970755 223.35025949 -177.76450157 226.94978714 C-177.65701023 234.01026128 -177.5555453 241.07081058 -177.45786095 248.13142776 C-176.90297997 247.57210556 -176.34809898 247.01278336 -175.77640343 246.43651199 C-170.54372168 241.16373948 -165.30623441 235.89580962 -160.06329536 230.63323784 C-157.36808521 227.92759498 -154.67476532 225.22012514 -151.98569298 222.50838089 C-149.39003956 219.89098096 -146.78951683 217.27851116 -144.18556023 214.66937256 C-143.19346316 213.673583 -142.20312674 212.67603608 -141.2145977 211.67670441 C-139.828693 210.27626142 -138.43589786 208.88264755 -137.04282188 207.48933792 C-136.25228416 206.69435898 -135.46174644 205.89938004 -134.64725304 205.08031082 C-132.52518032 203.19135197 -131.07610759 202.17368614 -128.45786095 201.13142776 C-125.6370306 200.87695217 -125.6370306 200.87695217 -122.31590843 200.87073135 C-121.05551247 200.86364655 -119.7951165 200.85656174 -118.49652672 200.84926224 C-117.10220873 200.851556 -115.70789109 200.85406569 -114.31357384 200.85676956 C-112.84328006 200.85242175 -111.37298856 200.84723837 -109.90270042 200.84128189 C-105.91096782 200.82788817 -101.91932987 200.82731362 -97.92757916 200.82984519 C-94.59501681 200.83091463 -91.26247362 200.82603223 -87.92991537 200.82123977 C-80.06787809 200.81014333 -72.20588859 200.80970797 -64.34384727 200.81575394 C-56.23336003 200.82179506 -48.12304621 200.80947957 -40.01258856 200.78818387 C-33.04856957 200.77057079 -26.0846058 200.76456603 -19.12056535 200.76782161 C-14.96154181 200.76963506 -10.80264199 200.7669922 -6.64363861 200.75310707 C-2.73248164 200.74053805 1.17840487 200.7424639 5.08955765 200.75551796 C6.52425032 200.75788531 7.95896197 200.75514333 9.39363289 200.74689484 C11.35346469 200.73644023 13.31337343 200.74632353 15.2732029 200.75720596 C16.36955024 200.75703822 17.46589758 200.75687048 18.59546757 200.75669765 C21.54213905 201.13142776 21.54213905 201.13142776 24.26771832 202.50376987 C27.12531204 204.54876748 29.57619456 206.89800118 32.03432655 209.39314651 C32.79786949 210.15737679 32.79786949 210.15737679 33.57683754 210.93704605 C34.64984503 212.0130627 35.72043312 213.09149683 36.78872108 214.17219925 C38.40010428 215.80170145 40.01920678 217.42319513 41.6397953 219.04353714 C42.6884423 220.09710609 43.7366337 221.15112874 44.78432655 222.20564651 C45.25748299 222.67991577 45.73063942 223.15418503 46.21813393 223.64282608 C50.19184866 227.67119805 53.7939573 231.84779148 57.54213905 236.13142776 C72.72213905 251.31142776 87.90213905 266.49142776 103.54213905 282.13142776 C103.54213905 232.30142776 103.54213905 182.47142776 103.54213905 131.13142776 C68.56213905 96.15142776 33.58213905 61.17142776 -2.45786095 25.13142776 C-8.1482808 29.98405188 -8.1482808 29.98405188 -13.53793907 35.08211136 C-14.25558434 35.79660446 -14.9732296 36.51109756 -15.71262169 37.24724197 C-16.46386314 38.00050766 -17.2151046 38.75377335 -17.98911095 39.52986526 C-18.78385826 40.32365585 -19.57860558 41.11744644 -20.39743614 41.93529129 C-22.06936005 43.60653796 -23.74003485 45.27903507 -25.4095211 46.95271683 C-27.94665752 49.49520073 -30.48907556 52.03231432 -33.0320797 54.56892776 C-34.66391075 56.20141982 -36.29543147 57.83422216 -37.92661095 59.46736526 C-38.6778524 60.21658249 -39.42909386 60.96579971 -40.2031002 61.73772049 C-43.5125504 65.061707 -46.73955948 68.40547593 -49.79208946 71.96785355 C-54.46422063 77.38371069 -59.57404385 82.37159332 -64.6414547 87.41267776 C-65.70784179 88.47719548 -66.77400514 89.54193738 -67.83995628 90.60689163 C-70.62091501 93.3840661 -73.40486538 96.15822202 -76.18948936 98.93172073 C-79.04055575 101.77248415 -81.88872763 104.61614648 -84.73715782 107.45955276 C-90.30792613 113.01965606 -95.88186414 118.57656795 -101.45786095 124.13142776 C-101.45786095 124.79142776 -101.45786095 125.45142776 -101.45786095 126.13142776 C-100.7308297 126.73277542 -100.7308297 126.73277542 -99.98911095 127.34627151 C-89.46141746 136.27456541 -82.83165767 145.48681138 -77.45786095 158.13142776 C-73.79175794 167.86556332 -72.71136544 177.76047236 -73.45786095 188.13142776 C-74.70786095 191.81892776 -74.70786095 191.81892776 -76.45786095 194.13142776 C-78.20786095 195.50642776 -78.20786095 195.50642776 -80.45786095 196.13142776 C-83.89536095 196.50642776 -83.89536095 196.50642776 -87.45786095 196.13142776 C-90.33286095 194.25642776 -90.33286095 194.25642776 -92.45786095 192.13142776 C-93.92059997 189.20594972 -93.69388391 186.45327022 -93.83286095 183.19392776 C-94.37614731 173.63962065 -96.37282674 165.0877419 -100.89536095 156.60799026 C-105.67275634 149.03581856 -111.75406876 143.25923778 -119.4070797 138.65877151 C-123.95470673 136.38204658 -128.65000732 134.79230214 -133.48911095 133.27205276 C-136.45786095 132.13142776 -136.45786095 132.13142776 -138.36411095 130.49080276 C-138.72504845 130.04220901 -139.08598595 129.59361526 -139.45786095 129.13142776 C-139.42305626 128.06666214 -139.38825157 127.00189651 -139.3523922 125.90486526 C-139.10775761 115.24225697 -139.55336526 105.18786279 -143.67661095 95.17049026 C-147.66278769 87.26457305 -153.09752742 80.64391866 -159.98911095 75.09236526 C-166.92177548 70.30067066 -174.18332522 67.63426236 -182.45786095 66.13142776 C-191.44482268 65.26899305 -199.95092394 66.05371478 -208.45786095 69.13142776 C-216.17055381 72.59907084 -222.75729047 76.80608564 -228.26254845 83.24080276 C-233.24502827 89.78431704 -236.95557853 96.99909526 -238.45786095 105.13142776 C-239.26579126 112.77110272 -239.40726153 120.45420618 -239.45786095 128.13142776 C-240.9773922 129.95564651 -240.9773922 129.95564651 -243.45786095 132.13142776 C-246.02531368 133.17805057 -248.51836434 134.08930016 -251.14536095 134.94392776 C-257.93659499 137.3362943 -263.23729033 140.04659198 -268.45786095 145.13142776 C-269.1642672 145.8107637 -269.87067345 146.49009964 -270.59848595 147.19002151 C-276.62140479 153.44716498 -279.79882958 160.24780021 -282.56723595 168.39705276 C-284.59647643 176.90562249 -284.30252628 186.28598232 -282.8055172 194.87361526 C-280.35532106 203.6438452 -275.99551307 211.15156913 -269.95786095 217.94392776 C-269.13286095 218.66580276 -268.30786095 219.38767776 -267.45786095 220.13142776 C-266.95899376 220.60966995 -266.46012657 221.08791214 -265.9461422 221.58064651 C-260.48769285 226.6319388 -254.49323373 229.89569099 -247.3836422 232.07283401 C-240.69612401 233.74269682 -234.21891509 234.51859614 -227.33286095 234.72517776 C-224.45786095 235.13142776 -224.45786095 235.13142776 -221.70786095 236.41267776 C-219.45786095 238.13142776 -219.45786095 238.13142776 -218.12192345 240.02205276 C-217.32760888 242.54516961 -217.44934089 244.27349139 -217.83286095 246.88142776 C-217.94372032 247.68064651 -218.0545797 248.47986526 -218.16879845 249.30330276 C-218.26418907 249.90658401 -218.3595797 250.50986526 -218.45786095 251.13142776 C-220.84359473 253.02356146 -222.52961443 254.15534559 -225.45786095 255.13142776 C-237.20480556 256.12380226 -249.07432428 253.85810138 -260.0086422 249.67049026 C-271.21281675 244.67111906 -281.24286447 237.69815133 -288.8992672 228.05720901 C-296.43785231 217.7971241 -301.86713284 206.4438152 -304.02036095 193.83845901 C-305.39038302 182.22996845 -305.15286738 170.29010166 -301.45786095 159.13142776 C-297.91429253 150.47145486 -293.52685159 142.28416674 -287.45786095 135.13142776 C-286.57227501 133.9461348 -286.57227501 133.9461348 -285.66879845 132.73689651 C-283.16639211 129.78794771 -280.39788208 127.45717682 -277.33286095 125.13142776 C-276.76607628 124.69717484 -276.19929161 124.26292191 -275.61533165 123.8155098 C-270.86466114 120.26167488 -265.91713816 117.47287849 -260.45786095 115.13142776 C-260.29930626 113.99447464 -260.14075157 112.85752151 -259.9773922 111.68611526 C-257.65876181 95.97038382 -253.53664535 83.16801848 -244.02817345 70.17830276 C-236.45866554 60.68434369 -226.27046345 54.80800659 -215.35727501 49.92537308 C-211.16238724 48.17193156 -206.91058521 47.00539733 -202.45786095 46.13142776 C-201.30286095 45.90455276 -200.14786095 45.67767776 -198.95786095 45.44392776 C-186.33023763 44.3164614 -173.93017875 45.76143125 -162.08286095 50.38142776 C-156.35553282 52.98194432 -151.37856509 56.22961742 -146.45786095 60.13142776 C-145.62383751 60.78884964 -144.78981407 61.44627151 -143.9305172 62.12361526 C-135.51074936 69.20711795 -129.19285106 77.8089038 -124.64536095 87.81892776 C-122.69355884 92.96983475 -121.47085436 98.15499581 -120.3211422 103.52595901 C-120.14023033 104.35599442 -119.95931847 105.18602982 -119.77292442 106.0412178 C-119.33113192 108.07054237 -118.89401622 110.10088415 -118.45786095 112.13142776 C-112.99607586 106.69279051 -107.53697608 101.25147048 -102.08131313 95.80669212 C-99.54807594 93.2786784 -97.01391489 90.75160531 -94.47763634 88.22664261 C-91.56333782 85.32526564 -88.6530731 82.41987256 -85.7430172 79.51424026 C-84.82947975 78.60586411 -83.91594231 77.69748795 -82.97472191 76.76158524 C-81.71352783 75.50050446 -81.71352783 75.50050446 -80.42685509 74.2139473 C-79.68295021 73.47226303 -78.93904533 72.73057877 -78.17259789 71.96641922 C-76.39060562 70.23352231 -76.39060562 70.23352231 -75.45786095 68.13142776 C-74.79786095 68.13142776 -74.13786095 68.13142776 -73.45786095 68.13142776 C-73.14683937 67.33390343 -73.14683937 67.33390343 -72.82953453 66.52026749 C-70.89973752 63.15942726 -68.23668684 60.62386474 -65.5110836 57.90999222 C-64.90274178 57.29653946 -64.29439995 56.6830867 -63.66762352 56.05104446 C-61.65753644 54.02706973 -59.64011725 52.01059806 -57.62192345 49.99470901 C-56.22166768 48.59056656 -54.82163616 47.18620043 -53.42181969 45.78162003 C-50.48801705 42.84035746 -47.55037054 39.90299886 -44.6102047 36.96809769 C-40.83989797 33.20359253 -37.08109266 29.42783122 -33.32530212 25.64885044 C-30.43779055 22.74662205 -27.54339782 19.85133419 -24.6469593 16.95801735 C-23.25792334 15.56846738 -21.87125497 14.17654656 -20.48699379 12.78223991 C-18.5528794 10.83581538 -16.60949858 8.89913945 -14.66342735 6.96467972 C-14.09185402 6.38546265 -13.52028069 5.80624557 -12.93138695 5.20947647 C-8.97865427 1.30879129 -8.97865427 1.30879129 -6.55777204 0.48432565 C-4.3322665 0.11032115 -2.25682032 0.00365408 0 0 Z M21.54213905 20.13142776 C26.50905194 25.94242968 26.50905194 25.94242968 31.72942543 31.44569778 C32.50599495 32.22508713 33.28256447 33.00447647 34.0826664 33.80748367 C34.91507851 34.63787155 35.74749062 35.46825943 36.60512733 36.32381058 C37.49690681 37.21734238 38.38868629 38.11087418 39.3074894 39.0314827 C41.73475424 41.4632742 44.1651325 43.89193086 46.59625292 46.31986713 C49.14766159 48.86872977 51.69661338 51.42004754 54.24596596 53.97096634 C58.52274506 58.24955962 62.80161696 62.52605145 67.08168983 66.80134964 C72.02555701 71.73976519 76.96579747 76.68178686 81.90419018 81.62567639 C86.15387625 85.87990258 90.40551055 90.13217434 94.65877521 94.38282275 C97.19508134 96.91757241 99.73071294 99.45298692 102.26458549 101.99016953 C105.08617632 104.81518947 107.91184758 107.63610592 110.73793983 110.45662308 C111.99263069 111.71435028 111.99263069 111.71435028 113.27266884 112.99748611 C114.04359871 113.76559616 114.81452858 114.53370621 115.60881996 115.32509232 C116.27577951 115.99167484 116.94273907 116.65825737 117.62990952 117.34503937 C118.26094526 117.93454754 118.89198101 118.52405571 119.54213905 119.13142776 C120.37585502 119.98052515 120.37585502 119.98052515 121.22641373 120.84677601 C123.65510916 122.19409808 124.81265798 122.37007648 127.53262138 122.50057125 C129.19738993 122.5131865 130.86233298 122.50910832 132.52706337 122.49219131 C133.90426351 122.49603623 133.90426351 122.49603623 135.30928588 122.49995881 C138.39261485 122.50490895 141.47545658 122.48838332 144.55874062 122.47200394 C146.76619899 122.47115793 148.97365822 122.47163229 151.1811161 122.47333145 C157.18076152 122.47419386 163.1802278 122.4565282 169.1798315 122.43560958 C175.4472183 122.41688379 181.71460898 122.41509557 187.98201942 122.41153336 C198.50371638 122.40326185 209.02535781 122.38451017 219.54702187 122.35774612 C230.3842581 122.33020802 241.22147646 122.30897323 252.05874062 122.29622269 C253.06079479 122.29504043 253.06079479 122.29504043 254.08309248 122.29383429 C257.43444179 122.28991917 260.78579123 122.28612805 264.13714075 122.28239858 C291.93885272 122.25102223 319.74049126 122.19823825 347.54213905 122.13142776 C346.60848669 121.03148546 345.67326955 119.93287129 344.73742104 118.83479691 C343.95648236 117.91689125 343.95648236 117.91689125 343.15976715 116.98044205 C340.59946756 114.05391616 337.86597471 111.3124334 335.11245155 108.56892776 C334.51842537 107.97394485 333.92439919 107.37896194 333.31237221 106.76594925 C332.06483063 105.51773223 330.81604566 104.27075677 329.56606483 103.02498245 C327.67543104 101.1396963 325.79018559 99.24914125 323.9054203 97.35799026 C322.68308443 96.13631547 321.46043824 94.91495106 320.23745155 93.69392776 C319.40892174 92.8623616 319.40892174 92.8623616 318.56365395 92.01399612 C314.36246596 87.83730417 310.02610322 84.05489641 305.54213905 80.13142776 C285.74213905 60.33142776 265.94213905 40.53142776 245.54213905 20.13142776 C171.62213905 20.13142776 97.70213905 20.13142776 21.54213905 20.13142776 Z M124.54213905 142.13142776 C123.36264861 144.49040865 123.41784929 145.88569908 123.41909122 148.51612663 C123.41710018 149.44320856 123.41510913 150.37029048 123.41305774 151.3254658 C123.41597059 152.35074141 123.41888343 153.37601703 123.42188454 154.4323616 C123.42103011 155.51621183 123.42017569 156.60006205 123.41929537 157.71675622 C123.41763953 161.37273742 123.42316367 165.02867341 123.42861366 168.68465042 C123.42889554 171.29574965 123.42873779 173.90684896 123.42817116 176.51794815 C123.42764604 182.15190607 123.43079156 187.78585243 123.436409 193.41980743 C123.44452566 201.56562492 123.44713939 209.7114368 123.44839699 217.85725789 C123.45058724 231.07234893 123.45724662 244.28743382 123.4666996 257.50252151 C123.4758744 270.34203943 123.4829549 283.18155567 123.48720741 296.0210762 C123.48747014 296.81210458 123.48773286 297.60313296 123.48800354 298.4181319 C123.48930855 302.38636951 123.49057227 306.35460712 123.49181545 310.32284474 C123.50218724 343.25904454 123.52062511 376.19523289 123.54213905 409.13142776 C144.99213905 409.13142776 166.44213905 409.13142776 188.54213905 409.13142776 C188.57952187 400.67131058 188.61690468 392.21119339 188.6554203 383.49470901 C188.68953968 377.45901746 188.72552724 371.42335976 188.76421642 365.38769817 C188.81410266 357.56637102 188.85956107 349.74509952 188.8885746 341.92366409 C188.91401347 335.07008273 188.9549209 328.21673341 189.00532532 321.36329079 C189.02202945 318.74662099 189.03352157 316.12991264 189.03975296 313.51319695 C189.04935519 309.85225487 189.07736939 306.19188731 189.10976601 302.53108597 C189.10761337 300.90296982 189.10761337 300.90296982 189.10541725 299.24196243 C189.19805616 291.8552929 189.19805616 291.8552929 191.06916237 287.91894913 C191.55524467 287.32906708 192.04132698 286.73918503 192.54213905 286.13142776 C201.10545192 283.89016781 209.57965425 283.82117242 218.3663578 283.83064651 C219.88229424 283.82675071 221.3982296 283.82241425 222.91416359 283.81766129 C226.07347614 283.81024445 229.23267681 283.81045882 232.39199257 283.81575394 C236.42680311 283.82156749 240.46115742 283.80455049 244.49589252 283.78140926 C247.61956361 283.76663991 250.74312528 283.76580413 253.8668251 283.76891899 C255.35428019 283.76840821 256.84174178 283.7632164 258.3291626 283.75310707 C260.41046332 283.74068556 262.4908804 283.74756529 264.57216835 283.75911331 C265.75223961 283.75848389 266.93231087 283.75785446 268.14814186 283.75720596 C272.17727589 284.20145789 274.90639202 285.37935278 278.54213905 287.13142776 C279.80617036 289.30541841 280.52198917 290.95164762 280.80385208 293.46646881 C280.80938284 294.33295422 280.8149136 295.19943962 280.82061195 296.09218216 C280.83177544 297.09055099 280.84293892 298.08891983 280.85444069 299.11754227 C280.85660088 300.20654831 280.85876106 301.29555435 280.86098671 302.41756058 C280.87605515 304.14481873 280.87605515 304.14481873 280.89142799 305.90697098 C280.92233866 309.71615979 280.93931728 313.52527807 280.95620155 317.33455276 C280.97490683 319.97443121 280.99447975 322.61430363 281.01488686 325.25416946 C281.06166053 331.49429543 281.09841142 337.73443855 281.13155973 343.97465014 C281.1735421 351.7769721 281.22890604 359.57919167 281.28432655 367.38142776 C281.38311934 381.29803828 281.4616709 395.21467244 281.54213905 409.13142776 C302.66213905 409.13142776 323.78213905 409.13142776 345.54213905 409.13142776 C345.54213905 321.02142776 345.54213905 232.91142776 345.54213905 142.13142776 C272.61213905 142.13142776 199.68213905 142.13142776 124.54213905 142.13142776 Z M-101.45786095 221.13142776 C-97.94486266 225.22992577 -94.63999424 229.07352148 -90.84873009 232.83821487 C-89.561931 234.12005913 -89.561931 234.12005913 -88.24913597 235.42779922 C-86.88485718 236.77963051 -86.88485718 236.77963051 -85.4930172 238.15877151 C-84.53157523 239.11579548 -83.57043492 240.07312257 -82.60957909 241.03073502 C-79.07181959 244.5552464 -75.52860658 248.07425837 -71.98550987 251.59340286 C-68.98278787 254.57624484 -65.98222622 257.56122988 -62.98437881 260.54897118 C-61.59351487 261.93344833 -60.19956572 263.31482387 -58.80553246 264.69610977 C-54.3824259 269.10224745 -50.10607575 273.53783798 -46.12239647 278.34799576 C-45.57309975 278.93652832 -45.02380302 279.52506088 -44.45786095 280.13142776 C-43.46609352 281.21921776 -43.46609352 281.21921776 -42.45429039 282.32898331 C-39.70336324 284.24077786 -39.70336324 284.24077786 -37.17184734 284.48627186 C-34.21803376 284.62527968 -31.29046993 284.62574572 -28.33359337 284.58552933 C-27.21120262 284.58611343 -26.08881187 284.58669754 -24.93240929 284.58729935 C-21.2257339 284.58451457 -17.51986447 284.55340227 -13.8133297 284.52205276 C-11.24215191 284.51459182 -8.67096844 284.5088982 -6.09978294 284.50490189 C-0.02595864 284.49119437 6.04753347 284.45967525 12.12123269 284.41950393 C19.03774206 284.37475384 25.95426542 284.3527911 32.87088358 284.33272219 C47.09479037 284.29094132 61.31845445 284.22060958 75.54213905 284.13142776 C74.14053545 281.21540752 72.7982551 279.14463837 70.48867226 276.86677933 C69.8707531 276.25223892 69.25283394 275.63769852 68.61618996 275.00453568 C67.61467148 274.02320663 67.61467148 274.02320663 66.5929203 273.02205276 C65.55665756 271.99359238 65.55665756 271.99359238 64.49946022 270.94435501 C62.28921767 268.75190699 60.07242913 266.56623866 57.85463905 264.38142776 C55.65552602 262.21009656 53.45794539 260.03727113 51.26337624 257.8613472 C49.89935673 256.5094032 48.53267512 255.16013756 47.16282082 253.81410599 C42.70701658 249.40422474 38.69412172 244.87655082 34.54213905 240.13142776 C28.27213905 233.86142776 22.00213905 227.59142776 15.54213905 221.13142776 C-23.06786095 221.13142776 -61.67786095 221.13142776 -101.45786095 221.13142776 Z M-126.45786095 225.13142776 C-149.88786095 248.56142776 -173.31786095 271.99142776 -197.45786095 296.13142776 C-197.45786095 333.42142776 -197.45786095 370.71142776 -197.45786095 409.13142776 C-184.58786095 409.13142776 -171.71786095 409.13142776 -158.45786095 409.13142776 C-158.4320797 402.98131058 -158.40629845 396.83119339 -158.37973595 390.49470901 C-158.35456902 386.59818293 -158.32823737 382.70173459 -158.2977047 378.80525589 C-158.24935434 372.62076395 -158.20531559 366.43645193 -158.18686485 360.25178909 C-158.17171929 355.26545487 -158.13731098 350.27959135 -158.08955193 345.29346657 C-158.07471647 343.39132847 -158.06681869 341.48912318 -158.0659771 339.58692741 C-158.06361219 336.92196997 -158.03657168 334.2583184 -158.00375938 331.59358597 C-158.01130493 330.41430527 -158.01130493 330.41430527 -158.01900291 329.21120071 C-157.97684288 326.99759293 -157.97684288 326.99759293 -157.45786095 323.13142776 C-155.61124229 320.16504288 -155.61124229 320.16504288 -153.45786095 318.13142776 C-150.59964694 317.17868976 -148.77478547 316.99477594 -145.80624962 316.97029495 C-144.39414459 316.95588364 -144.39414459 316.95588364 -142.95351219 316.94118118 C-141.43005936 316.93480637 -141.43005936 316.93480637 -139.8758297 316.92830276 C-138.82889442 316.92260269 -137.78195915 316.91690262 -136.70329857 316.91102982 C-134.4866493 316.9015801 -132.26998599 316.89504595 -130.05331993 316.89119339 C-126.66903604 316.88149561 -123.28536146 316.85047463 -119.90122032 316.81892776 C-117.74692705 316.81239678 -115.59262944 316.80714668 -113.4383297 316.80330276 C-111.9239859 316.78478256 -111.9239859 316.78478256 -110.3790493 316.76588821 C-106.04687941 316.77956139 -102.91677628 316.95470068 -98.83408165 318.52693558 C-98.04992882 319.056418 -97.26577599 319.58590042 -96.45786095 320.13142776 C-94.85604932 323.33505103 -95.27767079 326.82387111 -95.25253868 330.34480667 C-95.24263908 331.19365936 -95.23273949 332.04251205 -95.2225399 332.91708755 C-95.19088178 335.73069315 -95.16615045 338.54431564 -95.1414547 341.35799026 C-95.12088889 343.30569784 -95.09989252 345.25340092 -95.07848167 347.2010994 C-95.02322243 352.33357987 -94.97383016 357.46610087 -94.92563438 362.59865189 C-94.86662746 368.75357382 -94.80037833 374.90842149 -94.7353344 381.06328201 C-94.63727641 390.41928534 -94.54845351 399.77533575 -94.45786095 409.13142776 C-81.58786095 409.13142776 -68.71786095 409.13142776 -55.45786095 409.13142776 C-55.45786095 371.84142776 -55.45786095 334.55142776 -55.45786095 296.13142776 C-65.02786095 286.56142776 -74.59786095 276.99142776 -84.45786095 267.13142776 C-86.76786095 264.49142776 -89.07786095 261.85142776 -91.45786095 259.13142776 C-92.74537513 257.77131075 -94.04681814 256.42393833 -95.37363243 255.10213089 C-96.05380928 254.42202957 -96.73398613 253.74192825 -97.4347744 253.0412178 C-98.1423539 252.33879959 -98.8499334 251.63638138 -99.5789547 250.91267776 C-100.32371559 250.16933182 -101.06847649 249.42598587 -101.83580589 248.66011429 C-104.1866284 246.31483475 -106.54092526 243.97307941 -108.89536095 241.63142776 C-110.50171294 240.03009816 -112.10783492 238.42853778 -113.71372032 236.82674026 C-117.62578079 232.92563304 -121.54069047 229.02740356 -125.45786095 225.13142776 C-125.78786095 225.13142776 -126.11786095 225.13142776 -126.45786095 225.13142776 Z M-35.45786095 303.13142776 C-35.45786095 338.11142776 -35.45786095 373.09142776 -35.45786095 409.13142776 C0.51213905 409.13142776 36.48213905 409.13142776 73.54213905 409.13142776 C73.54213905 374.15142776 73.54213905 339.17142776 73.54213905 303.13142776 C37.57213905 303.13142776 1.60213905 303.13142776 -35.45786095 303.13142776 Z M93.54213905 303.13142776 C93.54213905 338.11142776 93.54213905 373.09142776 93.54213905 409.13142776 C97.17213905 409.13142776 100.80213905 409.13142776 104.54213905 409.13142776 C104.54213905 374.15142776 104.54213905 339.17142776 104.54213905 303.13142776 C100.91213905 303.13142776 97.28213905 303.13142776 93.54213905 303.13142776 Z M209.54213905 303.13142776 C209.54213905 338.11142776 209.54213905 373.09142776 209.54213905 409.13142776 C226.70213905 409.13142776 243.86213905 409.13142776 261.54213905 409.13142776 C261.54213905 374.15142776 261.54213905 339.17142776 261.54213905 303.13142776 C244.38213905 303.13142776 227.22213905 303.13142776 209.54213905 303.13142776 Z M-138.45786095 335.13142776 C-138.45786095 359.55142776 -138.45786095 383.97142776 -138.45786095 409.13142776 C-130.20786095 409.13142776 -121.95786095 409.13142776 -113.45786095 409.13142776 C-113.45786095 384.71142776 -113.45786095 360.29142776 -113.45786095 335.13142776 C-121.70786095 335.13142776 -129.95786095 335.13142776 -138.45786095 335.13142776 Z " fill="#000000" transform="translate(394.4578609466553,67.86857223510742)"/>
<path d="M0 0 C1.0566259 -0.00744736 1.0566259 -0.00744736 2.13459778 -0.01504517 C4.46425352 -0.02964659 6.79384118 -0.03646521 9.12353516 -0.04199219 C10.74394736 -0.04774508 12.36435955 -0.0535028 13.98477173 -0.05926514 C17.38259193 -0.06976922 20.78038851 -0.07561583 24.17822266 -0.07910156 C28.52839313 -0.08458664 32.87825066 -0.10861726 37.22832298 -0.13707352 C40.57580473 -0.15571246 43.92321126 -0.16090615 47.27074051 -0.16243744 C48.87429135 -0.16546141 50.47784095 -0.17348133 52.08134079 -0.18662262 C54.3266038 -0.20371069 56.57110428 -0.2017966 58.81640625 -0.1953125 C60.09309174 -0.19895813 61.36977722 -0.20260376 62.68515015 -0.20635986 C66.03759766 0.16113281 66.03759766 0.16113281 68.86392212 1.49591064 C71.03759766 3.16113281 71.03759766 3.16113281 73.03759766 6.16113281 C73.30502319 8.31051636 73.30502319 8.31051636 73.328125 10.82861328 C73.3408847 11.77324432 73.35364441 12.71787537 73.36679077 13.69113159 C73.36901642 14.70990387 73.37124207 15.72867615 73.37353516 16.77832031 C73.38352036 18.35228073 73.38352036 18.35228073 73.39370728 19.95803833 C73.40383697 22.1788762 73.4085242 24.39974452 73.40820312 26.62060547 C73.41257193 30.01613652 73.44887733 33.41036343 73.48681641 36.80566406 C73.49268535 38.9632117 73.49665422 41.12076551 73.49853516 43.27832031 C73.51290619 44.29304413 73.52727722 45.30776794 73.54208374 46.35324097 C73.52485397 49.01595882 73.45576074 51.53144527 73.03759766 54.16113281 C71.13378906 57.27880859 71.13378906 57.27880859 69.03759766 59.16113281 C66.05463842 60.65261243 63.33293057 60.31318163 60.00512695 60.33813477 C59.28134857 60.34470596 58.55757019 60.35127716 57.81185913 60.35804749 C55.41184388 60.37779012 53.01189123 60.38944531 50.61181641 60.39941406 C49.79244913 60.40348959 48.97308186 60.40756512 48.12888527 60.41176414 C43.79189938 60.43262924 39.45494516 60.4469289 35.11791992 60.45629883 C30.63871824 60.46736285 26.16001341 60.50176102 21.68098736 60.54147053 C18.23656797 60.56761942 14.79226726 60.57598912 11.34775734 60.57958031 C9.69674131 60.58445096 8.04573075 60.59607863 6.39481163 60.6146183 C4.08222505 60.63897355 1.77092759 60.63805199 -0.54174805 60.63110352 C-2.51459526 60.63990288 -2.51459526 60.63990288 -4.52729797 60.64888 C-7.96240234 60.16113281 -7.96240234 60.16113281 -10.86369324 58.25675964 C-12.96240234 56.16113281 -12.96240234 56.16113281 -13.96240234 54.16113281 C-14.07229499 52.64598159 -14.12145695 51.12620292 -14.1394043 49.60717773 C-14.15223953 48.66247116 -14.16507477 47.71776459 -14.17829895 46.74443054 C-14.18568588 45.72049698 -14.19307281 44.69656342 -14.20068359 43.64160156 C-14.20875534 42.59087967 -14.21682709 41.54015778 -14.22514343 40.45759583 C-14.23899049 38.23078058 -14.24970985 36.00394404 -14.25756836 33.77709961 C-14.27478016 30.37280006 -14.31866148 26.96947171 -14.36279297 23.56542969 C-14.37291979 21.40332746 -14.38143593 19.24121697 -14.38818359 17.07910156 C-14.40569168 16.06124069 -14.42319977 15.04337982 -14.4412384 13.99467468 C-14.43305243 11.32484981 -14.36833951 8.79981223 -13.96240234 6.16113281 C-12.12329102 3.04125977 -12.12329102 3.04125977 -9.96240234 1.16113281 C-6.46296996 -0.00534465 -3.69366023 0.01977918 0 0 Z M6.03759766 19.16113281 C6.03759766 26.42113281 6.03759766 33.68113281 6.03759766 41.16113281 C10.65759766 41.16113281 15.27759766 41.16113281 20.03759766 41.16113281 C20.03759766 33.90113281 20.03759766 26.64113281 20.03759766 19.16113281 C15.41759766 19.16113281 10.79759766 19.16113281 6.03759766 19.16113281 Z M39.03759766 19.16113281 C39.03759766 26.42113281 39.03759766 33.68113281 39.03759766 41.16113281 C43.98759766 41.16113281 48.93759766 41.16113281 54.03759766 41.16113281 C54.03759766 34.23113281 54.03759766 27.30113281 54.03759766 20.16113281 C53.70759766 19.83113281 53.37759766 19.50113281 53.03759766 19.16113281 C48.41759766 19.16113281 43.79759766 19.16113281 39.03759766 19.16113281 Z " fill="#000000" transform="translate(599.96240234375,251.8388671875)"/>
<path d="M0 0 C10.56 0 21.12 0 32 0 C34.475 2.475 34.475 2.475 37 5 C37 15.89 37 26.78 37 38 C35.35 39.65 33.7 41.3 32 43 C21.44 43 10.88 43 0 43 C-1.65 41.35 -3.3 39.7 -5 38 C-5 27.11 -5 16.22 -5 5 C-3.35 3.35 -1.7 1.7 0 0 Z " fill="#000000" transform="translate(398,403)"/>
</svg>
