<svg version="1.1" id="Layer_1" xmlns="http://www.w3.org/2000/svg" xmlns:xlink="http://www.w3.org/1999/xlink" x="0px" y="0px"
	 width="100%" viewBox="0 0 1024 1024" enable-background="new 0 0 1024 1024" xml:space="preserve">
<path fill="#000000" opacity="1.000000" stroke="none" 
	d="
M597.572937,601.824036 
	C602.120056,592.970276 609.913940,589.565430 618.660522,587.755554 
	C623.557251,586.742371 628.551941,586.572632 633.562622,586.609375 
	C639.624939,586.653870 640.064026,586.186279 639.684448,579.978699 
	C639.174683,571.642517 636.495789,563.683777 635.188049,555.481323 
	C634.903870,553.698914 634.517395,551.932800 634.011780,549.290039 
	C632.148621,551.942627 630.605164,554.001831 629.206116,556.154846 
	C621.369324,568.214172 612.882385,579.697144 601.423035,588.674988 
	C596.917358,592.204895 592.194458,595.231201 586.571045,596.616211 
	C583.828430,597.291687 582.652283,598.836243 582.231262,601.823608 
	C579.776062,619.242981 556.314514,632.720276 540.428101,626.121704 
	C535.027649,623.878540 531.544617,620.035156 530.813843,614.349915 
	C530.016479,608.146545 532.234558,602.833740 537.528931,599.175964 
	C545.174866,593.893616 553.794861,591.783020 562.985901,591.635925 
	C570.877197,591.509705 571.968933,590.391113 570.389587,582.875916 
	C568.584839,574.288330 566.398987,565.780884 564.135437,556.209839 
	C560.138184,562.245300 556.773438,567.651978 553.087891,572.830322 
	C541.171692,589.572876 528.132385,605.344849 512.291626,618.585144 
	C507.417389,622.659180 502.253174,626.474548 495.692841,627.244934 
	C485.949158,628.389099 481.060211,624.826599 478.506165,615.381897 
	C477.615631,612.088623 477.671204,608.801453 477.875092,604.628357 
	C471.481232,611.931580 465.558014,618.773804 458.407318,624.377380 
	C454.688507,627.291626 450.706543,629.686096 446.151154,630.927063 
	C435.573853,633.808594 427.483917,628.033386 426.711151,617.043030 
	C426.492035,613.926819 426.677643,610.782166 426.677643,606.616760 
	C419.248138,616.768799 411.793854,625.458679 402.491272,632.342102 
	C398.414398,635.358826 393.966949,637.457581 388.678650,637.379883 
	C380.396576,637.258179 374.218384,631.428467 373.641602,623.078857 
	C372.870575,611.917236 376.408569,601.656433 380.711029,591.721680 
	C386.268402,578.889160 392.455902,566.329956 398.343353,553.639709 
	C399.808014,550.482727 402.032379,548.717651 405.676239,548.627869 
	C412.601746,548.457214 414.962891,551.910156 411.869598,558.030334 
	C405.331726,570.965454 398.989563,584.003357 393.664032,597.481506 
	C390.743561,604.872803 387.730713,612.372742 388.175385,620.614807 
	C388.486084,626.373535 390.795929,627.977966 395.890503,625.284424 
	C405.107391,620.411499 411.332001,612.230774 417.744141,604.350891 
	C429.611877,589.766479 438.129059,573.164062 446.363159,556.404053 
	C447.765991,553.548706 449.266296,550.744141 451.396545,548.393799 
	C454.223755,545.274536 459.148834,544.832458 462.317200,547.325562 
	C465.615387,549.920837 464.290741,552.948669 462.839508,555.864380 
	C456.754303,568.090271 450.804901,580.374451 445.749664,593.075989 
	C443.336975,599.137817 441.747742,605.418152 440.573669,611.798706 
	C440.028046,614.763733 439.841522,618.163696 442.504578,620.148499 
	C445.228027,622.178223 448.001068,620.132629 450.322144,618.640320 
	C460.281128,612.236877 467.782379,603.299988 475.101532,594.190369 
	C486.496857,580.007568 492.997101,563.055908 501.651062,547.323120 
	C503.109497,544.671814 504.553558,542.105896 507.433868,540.662781 
	C510.721924,539.015442 513.709717,539.682922 516.194641,541.997314 
	C518.479797,544.125610 517.201355,546.653503 516.068420,548.894104 
	C508.628265,563.607544 501.235687,578.345886 495.519318,593.840210 
	C493.562256,599.144836 491.919708,604.553894 492.323486,610.370728 
	C492.751160,616.531738 495.382599,618.163147 500.774567,615.345276 
	C506.754547,612.219971 511.725983,607.753296 516.412720,603.013611 
	C535.160950,584.053528 550.575439,562.600342 563.685303,539.433655 
	C565.651489,535.959106 567.757080,532.539185 571.044434,530.065491 
	C573.877808,527.933533 576.894470,527.021912 580.402771,528.239197 
	C582.846924,529.087219 585.341492,530.128296 585.862244,532.819519 
	C586.318237,535.176025 583.800049,535.957336 582.285583,537.148865 
	C579.236572,539.547668 577.536255,542.642334 577.278198,546.518066 
	C576.945496,551.516663 577.032776,556.464966 578.116394,561.412964 
	C579.995422,569.993286 583.063965,578.301270 583.554932,586.891541 
	C586.191650,588.370300 587.754028,586.749573 589.459351,585.867798 
	C600.163086,580.333252 607.393066,571.120300 614.554993,561.901062 
	C622.856873,551.214478 629.627625,539.544739 636.021301,527.642639 
	C639.778931,520.647888 643.184631,518.637573 648.833130,519.588989 
	C651.628235,520.059692 654.053833,521.144958 655.003113,523.969421 
	C655.900940,526.640869 653.513245,527.786011 651.950439,529.151794 
	C647.159119,533.339050 646.852112,538.959961 646.883484,544.672668 
	C646.935181,554.083374 649.914551,562.993835 651.781921,572.086426 
	C652.513184,575.646912 651.827942,579.468323 653.753601,582.822510 
	C655.432129,583.597717 656.630615,582.415833 657.851990,581.706421 
	C666.664307,576.587830 674.006958,570.033203 678.612549,560.702576 
	C683.528320,550.743469 690.186035,542.012512 698.212341,534.376648 
	C704.742371,528.164307 712.435425,523.940979 721.412659,522.490112 
	C735.463745,520.219360 745.517029,528.481323 746.342041,542.773376 
	C746.628479,547.736267 746.399475,552.674133 745.413269,557.996094 
	C750.043030,556.994446 753.208618,554.284302 756.473755,551.877869 
	C764.199951,546.183655 770.613098,539.244385 775.628540,531.031860 
	C776.581726,529.470947 777.610413,527.940796 778.748230,526.511047 
	C781.886108,522.568665 786.062195,521.508667 789.702515,523.828125 
	C793.957947,526.539490 792.369995,530.054993 790.787964,533.489136 
	C788.348938,538.783875 785.782227,544.022888 783.470398,549.372375 
	C781.180115,554.672058 779.138489,560.079285 776.719421,566.108215 
	C787.035583,553.297729 795.294983,539.691284 807.470215,529.357300 
	C812.728210,524.894531 818.176331,520.866272 825.075012,519.338684 
	C832.955322,517.593750 839.772217,522.825623 840.351440,530.877136 
	C840.733948,536.194397 839.472961,541.110474 837.323486,545.877258 
	C833.764771,553.769165 830.047791,561.593750 826.673401,569.563477 
	C824.203918,575.395996 822.311951,581.485352 822.395813,587.910400 
	C822.501038,595.980591 826.697449,598.756775 834.265747,595.704773 
	C846.235168,590.878052 854.940918,581.934265 863.038147,572.298645 
	C864.748840,570.263000 866.237122,568.026367 868.062195,566.104858 
	C869.725281,564.353882 872.054016,564.029419 874.005920,565.371704 
	C876.062378,566.785950 875.483582,568.940796 874.316284,570.726868 
	C864.517700,585.719482 853.148193,599.050171 835.803101,605.678955 
	C820.585754,611.494507 805.501221,602.988892 808.183167,582.147217 
	C809.732483,570.107422 814.567078,559.110352 820.261658,548.484375 
	C822.468140,544.367249 824.381531,540.116211 825.769592,535.647522 
	C826.244263,534.119263 827.407654,532.444031 825.699097,531.055237 
	C824.146362,529.793152 822.439392,530.708984 820.980103,531.383362 
	C814.475098,534.389526 809.576355,539.442627 804.924011,544.662231 
	C788.982239,562.547852 776.945312,583.158081 764.364136,603.375916 
	C762.079285,607.047607 759.469543,609.794556 754.753906,608.778564 
	C749.639099,607.676514 748.354919,605.070007 750.410217,599.897217 
	C755.759644,586.434021 761.196594,573.005615 766.580017,559.555847 
	C767.242859,557.899719 767.792725,556.198486 768.822205,553.325928 
	C760.702393,559.729248 753.273376,564.957458 744.425171,567.725159 
	C742.283264,568.395081 741.977905,570.740295 741.247070,572.564758 
	C736.174377,585.227783 729.717773,596.946045 719.044373,605.894226 
	C712.296387,611.551575 704.698730,615.176575 695.799561,614.792725 
	C681.869873,614.192017 673.316589,604.434082 672.783752,589.088318 
	C672.720825,587.276794 672.775146,585.461182 672.775146,583.162598 
	C668.468872,584.417847 665.948730,587.952087 662.278442,589.143921 
	C655.614502,591.307800 652.186401,595.544128 648.979675,602.079712 
	C641.963745,616.379211 629.808777,624.274170 613.074036,623.331909 
	C600.807861,622.641235 594.269592,613.833008 597.572937,601.824036 
M714.988403,596.501282 
	C721.701843,589.591125 726.123474,581.266785 730.000549,572.559875 
	C731.421387,569.369080 731.462097,567.276489 728.054932,565.206848 
	C723.444153,562.406006 721.043945,558.021790 720.376587,552.479187 
	C719.462280,544.886597 722.134460,538.560059 726.928955,532.276917 
	C723.134033,531.884094 720.145020,532.229797 717.236877,533.676819 
	C711.904053,536.330261 707.657043,540.299438 704.030212,544.880127 
	C693.105591,558.678223 685.889709,573.838501 687.320190,592.049622 
	C688.168640,602.850586 696.189514,607.554565 705.889282,602.907410 
	C709.068481,601.384277 711.898560,599.375000 714.988403,596.501282 
M632.339661,594.437500 
	C625.119507,595.190857 617.654236,595.132019 611.710693,600.309021 
	C608.519409,603.088745 607.039429,606.523193 609.217896,610.486816 
	C611.232666,614.152649 614.939941,614.945496 618.693726,614.336121 
	C627.593933,612.891174 635.754211,604.325500 637.244202,595.231445 
	C636.019897,594.006592 634.441528,594.632019 632.339661,594.437500 
M542.988464,610.223633 
	C542.784912,615.868896 545.076233,618.541809 550.197021,618.632690 
	C558.741821,618.784424 568.734741,608.965942 569.023621,599.816772 
	C565.886780,599.992859 562.759216,600.092102 559.647949,600.372131 
	C557.836426,600.535217 556.014771,600.855835 554.260681,601.335754 
	C549.533569,602.628906 544.968628,604.218018 542.988464,610.223633 
M733.640869,539.177612 
	C726.930542,543.808350 726.921143,552.025574 733.925049,557.184265 
	C735.713013,551.179565 736.724243,545.363159 733.640869,539.177612 
z"/>
<path fill="#000000" opacity="1.000000" stroke="none" 
	d="
M468.512939,344.472473 
	C452.816803,367.794647 435.204193,389.022430 414.961273,408.046631 
	C408.733612,413.899353 408.666046,422.079376 407.455933,429.703125 
	C406.914551,433.114014 407.113403,436.710571 407.447205,440.177490 
	C408.063812,446.581604 412.316772,449.165894 418.394318,446.976929 
	C423.144501,445.265991 427.453339,442.618652 431.170593,439.279053 
	C442.752411,428.873810 452.953064,417.770355 458.205322,402.296234 
	C463.160339,387.697876 473.239380,376.085419 485.827362,366.971222 
	C491.737518,362.692017 498.333771,359.482239 505.730469,360.036957 
	C517.794739,360.941681 523.765869,373.322723 518.231262,385.826416 
	C510.208008,403.952332 495.114868,413.587799 476.915985,419.264679 
	C476.441864,419.412537 475.933502,419.446625 475.447723,419.561676 
	C465.977936,421.804077 465.374268,422.535553 467.034515,429.737579 
	C469.317719,439.641998 474.523560,443.746826 482.426483,442.125732 
	C490.900208,440.387482 497.728088,435.837067 503.956055,430.116241 
	C519.023438,416.275696 529.575623,399.137268 539.594604,381.586945 
	C542.317017,376.817963 545.217346,372.135803 548.302551,367.594849 
	C549.873718,365.282349 551.823242,363.116150 553.970459,361.326172 
	C561.004578,355.462433 569.098450,357.479797 572.623291,365.920532 
	C575.086182,371.818207 575.363037,378.199707 576.311401,384.424652 
	C576.504578,385.692566 576.030762,387.114838 577.611328,388.515411 
	C580.435669,385.071167 583.259644,381.669830 586.037354,378.231110 
	C591.484802,371.487396 597.136841,364.928040 603.456726,358.978363 
	C605.792664,356.779236 608.411804,355.024109 611.736755,354.705872 
	C614.534790,354.438080 617.380981,354.783752 618.742859,357.434967 
	C620.174805,360.222656 617.947754,362.332062 615.972107,363.708832 
	C607.237427,369.795715 600.742798,378.086365 593.682434,385.825439 
	C589.079163,390.871155 584.567688,396.001801 579.907166,400.993683 
	C577.908875,403.134003 577.372986,405.230011 577.991455,408.218994 
	C579.303650,414.560608 579.960876,421.047607 582.462524,427.097168 
	C586.141052,435.992767 591.733398,437.422546 599.096985,431.196198 
	C611.617371,420.609467 621.021729,407.499481 628.718079,393.186157 
	C634.394226,382.629913 639.447876,371.739471 644.812256,361.014618 
	C646.356506,357.927338 648.215393,355.358643 652.320190,355.514587 
	C658.504395,355.749451 660.796631,359.187714 658.157288,364.767426 
	C653.101868,375.454681 647.860352,386.056030 642.946350,396.807404 
	C639.488464,404.372772 636.388367,412.107910 634.865967,420.360291 
	C634.775635,420.850342 634.523682,421.326630 634.513367,421.812866 
	C634.437378,425.403076 633.038757,429.834625 636.704346,431.935944 
	C639.818481,433.721161 642.950134,430.883911 645.673157,429.055847 
	C657.294495,421.253937 666.509827,410.921814 675.320007,400.251251 
	C688.067566,384.811829 699.584290,368.493469 709.305237,350.947418 
	C711.411987,347.144806 713.852661,343.545319 717.429932,340.923737 
	C721.424255,337.996460 725.765442,337.484650 730.050293,339.995514 
	C732.769226,341.588745 733.762512,344.169342 730.814575,346.465302 
	C722.443237,352.984955 722.187744,362.025116 723.861206,371.009552 
	C725.926208,382.095490 729.228149,392.947662 731.848755,403.935852 
	C732.518677,406.745056 734.009155,407.657532 736.763184,407.676514 
	C749.144897,407.761658 759.399780,403.012665 767.962402,394.278931 
	C769.943970,392.257812 771.802124,390.111084 773.847839,388.159119 
	C775.433411,386.646027 777.339172,386.121796 779.256897,387.635895 
	C781.127380,389.112701 781.274231,391.022064 780.134521,392.986725 
	C772.031433,406.954742 760.403748,416.372375 743.964783,417.020447 
	C736.026672,417.333344 731.598022,418.564728 728.083374,426.690674 
	C721.220947,442.557098 702.319641,451.299530 687.274475,447.574921 
	C679.859680,445.739319 674.292114,441.805206 673.061462,433.988556 
	C671.835144,426.199127 675.342834,420.113831 681.714355,415.613861 
	C689.954590,409.794128 699.461121,407.979279 709.168396,407.821503 
	C721.515198,407.620850 719.075562,406.470428 717.310181,397.496124 
	C715.403931,387.805634 712.827332,378.247009 710.373779,367.917603 
	C703.673767,377.999115 697.718811,387.651093 690.423950,396.273224 
	C677.954407,411.011505 665.749023,426.062012 649.748047,437.325958 
	C646.730774,439.449921 643.604614,441.366150 639.985168,442.225464 
	C629.526306,444.708527 622.391968,439.960236 620.473938,429.312683 
	C620.150269,427.515503 619.851196,425.713898 619.479126,423.557495 
	C616.018311,427.315796 612.750061,430.959595 609.376587,434.503235 
	C605.559387,438.512878 601.245850,441.879883 596.215698,444.286957 
	C586.913330,448.738434 578.428101,446.063416 573.199951,437.088196 
	C569.990906,431.579163 568.275879,425.506927 566.298767,418.678986 
	C559.242249,427.621246 552.621704,436.101135 545.076538,443.778168 
	C542.473816,446.426300 539.698059,448.850677 536.183228,450.072144 
	C533.383240,451.045166 530.272583,450.997528 528.446594,448.339783 
	C526.369141,445.316071 529.036255,443.462036 531.030090,441.739258 
	C540.004822,433.984772 548.007507,425.304688 555.781250,416.368469 
	C561.367126,409.947266 565.130371,403.147858 563.696106,394.228058 
	C562.498718,386.781342 563.530945,378.985565 560.450317,371.581116 
	C557.133972,372.083588 555.652039,374.365845 554.245728,376.551880 
	C548.119995,386.073975 542.096863,395.661987 536.010132,405.209290 
	C528.098572,417.618866 519.272339,429.278778 507.989807,438.877594 
	C499.760010,445.879242 490.955048,451.872620 479.678345,452.317108 
	C466.598175,452.832703 459.128052,447.551361 454.804565,435.185730 
	C454.260193,433.628723 453.824951,432.033569 453.108307,429.706482 
	C448.869141,434.230988 445.140778,438.612335 440.991821,442.550659 
	C433.488403,449.673126 425.792419,456.741180 414.992859,458.385773 
	C402.459900,460.294342 393.029724,451.989594 392.643463,439.192963 
	C392.178680,423.794281 396.175323,409.191833 400.644073,394.728180 
	C410.357666,363.288971 422.697693,332.928040 439.768738,304.704926 
	C447.714355,291.568695 456.723602,279.132385 469.295471,269.832855 
	C473.078064,267.034821 477.121826,264.793732 482.035583,264.654510 
	C491.465912,264.387390 496.596069,269.036469 497.275421,278.539490 
	C497.650726,283.789551 496.566437,288.801544 494.812653,293.697388 
	C488.368439,311.686798 479.039673,328.187958 468.512939,344.472473 
M457.003967,343.524261 
	C468.888397,325.972717 479.749390,307.917023 484.746765,286.988556 
	C485.587463,283.467712 487.401123,279.014435 483.811707,276.876923 
	C480.100861,274.667145 477.060150,278.683411 474.548340,281.081421 
	C466.444122,288.818451 459.984497,297.877655 454.127563,307.416168 
	C443.734467,324.342224 435.571381,342.349945 427.846954,360.585510 
	C423.305054,371.307922 419.093597,382.144409 415.654266,394.089966 
	C430.989441,378.084869 444.667877,361.817108 457.003967,343.524261 
M495.946106,399.461731 
	C501.558502,394.374390 506.451508,388.785736 508.173523,381.128296 
	C509.029266,377.322723 509.545197,373.291443 506.097931,370.522705 
	C502.574768,367.693024 499.575287,370.736359 496.562531,372.229492 
	C495.534149,372.739166 494.627411,373.509766 493.702911,374.210999 
	C483.436584,381.998505 477.295746,392.746826 472.266296,404.261627 
	C471.309479,406.452209 469.906464,408.605469 470.339142,411.603607 
	C480.043976,410.144592 488.023956,405.696289 495.946106,399.461731 
M688.116455,436.395355 
	C690.734253,438.323639 693.542725,439.515106 696.913696,439.016174 
	C706.377258,437.615417 716.228821,426.786682 716.922546,416.400543 
	C707.905212,416.269165 699.014771,416.297882 691.047729,421.326202 
	C685.672668,424.718597 684.485352,430.222809 688.116455,436.395355 
z"/>
<path fill="#000000" opacity="1.000000" stroke="none" 
	d="
M243.260895,393.357422 
	C233.237488,395.625854 223.931396,398.637054 215.231827,403.390167 
	C210.691223,405.870941 206.978958,408.963226 205.380310,414.116486 
	C204.428055,417.186096 202.352127,418.903778 199.022781,418.493835 
	C195.623169,418.075195 193.567612,415.829132 192.937531,412.686523 
	C192.057404,408.296875 192.596008,404.173950 195.999847,400.654205 
	C202.495270,393.937592 210.835587,390.550903 219.347366,387.653107 
	C243.169144,379.542999 267.875244,378.045441 292.753754,378.964050 
	C298.708130,379.183929 302.108398,377.320587 305.334656,372.481964 
	C322.609406,346.574219 339.417969,320.307617 359.768829,296.611115 
	C366.717285,288.520294 374.004761,280.718750 383.188538,275.023621 
	C386.787750,272.791687 390.665649,271.495941 394.969360,271.439880 
	C402.568207,271.340912 406.827484,276.470673 404.766998,283.895905 
	C401.559143,295.455811 397.034332,306.575256 392.704987,317.743195 
	C383.917969,340.410187 376.016144,363.387756 368.077728,386.357208 
	C367.013672,389.435944 367.847198,390.557892 370.624054,391.384430 
	C374.444794,392.521729 378.230347,393.799774 381.967072,395.189423 
	C384.659363,396.190613 386.079712,398.251221 385.004761,401.099792 
	C384.053436,403.620819 381.910065,404.316742 379.264618,403.793365 
	C374.249756,402.801208 369.213013,401.919739 363.874573,400.934967 
	C360.083862,412.956116 357.137787,424.836304 355.329742,437.007019 
	C354.274048,444.113403 353.778748,451.184326 354.989136,458.340210 
	C355.903412,463.745453 357.873199,468.564056 361.614532,472.609192 
	C362.797546,473.888214 363.768494,475.280487 362.830322,477.072998 
	C361.983032,478.691956 360.469025,479.214874 358.690613,479.397156 
	C350.465820,480.240234 341.997833,472.991913 339.732605,462.713715 
	C336.912231,449.916748 338.569763,437.230835 341.529541,424.705688 
	C343.589478,415.988373 346.159821,407.391724 348.554932,398.546295 
	C345.326538,395.983826 341.303192,396.316742 337.678711,395.721527 
	C329.160034,394.322540 320.532990,393.591461 312.001587,392.258514 
	C307.774841,391.598114 305.404053,393.064575 303.062988,396.579285 
	C288.907928,417.830536 273.626129,438.243073 255.247360,456.077820 
	C237.750381,473.056824 218.682037,487.785492 194.318436,493.590637 
	C181.096008,496.741180 167.814697,496.699310 155.173309,490.976807 
	C146.292038,486.956421 139.368134,480.938110 138.715042,470.268005 
	C138.530975,467.260834 138.781204,463.875000 142.413528,462.931427 
	C146.208221,461.945648 147.568298,464.979462 148.882523,467.789551 
	C153.271851,477.174988 161.176559,481.524200 171.020004,482.630249 
	C191.261475,484.904663 208.496811,477.372650 224.566727,465.970734 
	C248.433899,449.036438 266.604248,426.735870 283.845795,403.535248 
	C286.683502,399.716736 289.466248,395.857452 293.001770,391.022278 
	C275.580597,389.630493 259.593842,390.390320 243.260895,393.357422 
M382.611694,303.197357 
	C384.557953,298.007874 386.504211,292.818359 388.450470,287.628876 
	C355.859009,312.356995 337.249695,347.820618 313.998932,380.135498 
	C315.539764,380.899170 316.106628,381.405487 316.702118,381.441772 
	C327.158844,382.079041 337.470367,383.818298 347.725433,385.800568 
	C351.594116,386.548370 353.007538,385.178711 354.097412,381.727356 
	C362.411499,355.398346 372.732330,329.792358 382.611694,303.197357 
z"/>
<path fill="#000000" opacity="1.000000" stroke="none" 
	d="
M264.733246,677.597351 
	C285.563324,672.915894 304.500397,665.010498 320.713226,651.539490 
	C332.595276,641.666931 342.344879,629.992371 345.076477,614.262268 
	C348.307068,595.658813 342.181519,581.870911 321.447540,577.098572 
	C311.856049,574.890869 303.010590,577.036377 293.887451,578.519104 
	C293.069519,578.652039 292.286255,579.009094 291.467499,579.124084 
	C288.909119,579.483582 286.207520,579.755127 285.329285,576.514832 
	C284.428802,573.192322 286.206696,570.905334 289.184509,569.946777 
	C293.288269,568.625671 297.531616,567.730103 301.729401,566.710632 
	C317.453156,562.891785 331.494446,556.098633 342.244934,543.604736 
	C348.039673,536.870300 351.506348,529.061157 352.513062,520.185059 
	C353.799988,508.837952 345.835144,498.428406 333.024841,494.666077 
	C322.061462,491.446198 311.014191,491.700928 299.928223,493.762024 
	C270.906708,499.157745 245.213516,511.379730 223.759750,531.802063 
	C214.481415,540.634277 206.648712,550.588013 206.356171,564.353394 
	C206.219513,570.784180 208.456268,576.107971 214.259476,579.450684 
	C215.813812,580.346008 217.151001,581.408875 216.957092,583.264648 
	C216.732086,585.417969 215.216492,586.719727 213.249634,587.584656 
	C207.412857,590.151245 200.372238,587.578857 196.516312,581.307251 
	C192.369675,574.562744 191.809906,567.191956 193.205322,559.622986 
	C195.810577,545.491638 204.052795,534.523132 214.380234,525.390442 
	C240.468872,502.319977 270.284821,486.615112 305.181580,481.501068 
	C317.075714,479.758026 328.818939,480.240753 340.223114,483.762573 
	C367.516785,492.191315 376.574005,520.027283 359.703400,543.118896 
	C351.193420,554.766907 339.421021,562.115845 326.124542,567.772827 
	C330.223053,569.082336 334.146484,570.208313 337.980835,571.582825 
	C355.132935,577.731567 364.500427,594.670837 360.855530,612.609741 
	C356.067291,636.176025 341.694580,653.065186 322.318939,665.719666 
	C291.679321,685.730957 257.593414,693.958069 221.162277,692.181580 
	C210.621475,691.667542 200.460464,688.988953 191.673492,682.557556 
	C186.373810,678.678711 182.721268,673.698792 181.084488,667.300354 
	C180.194077,663.819580 180.793503,660.665833 183.331436,658.045898 
	C186.627930,654.642883 190.580704,655.233887 191.727158,659.784241 
	C195.576874,675.064026 207.651627,678.804810 220.784927,680.586670 
	C235.421738,682.572449 249.937988,680.623840 264.733246,677.597351 
z"/>
<path fill="#000000" opacity="1.000000" stroke="none" 
	d="
M647.590393,697.620972 
	C649.757507,701.139038 650.825562,704.548645 650.381165,708.379944 
	C650.166321,710.231750 649.453491,711.592041 647.596863,712.066467 
	C645.641418,712.566040 643.808655,712.182922 642.880554,710.258606 
	C633.930542,691.701965 616.297485,686.945129 598.567932,683.536499 
	C571.726318,678.375793 544.579590,679.729187 517.496765,682.190857 
	C482.991821,685.326965 448.992493,691.296082 415.574829,700.427673 
	C386.615356,708.340942 358.451050,718.439331 331.781586,732.362976 
	C321.002899,737.990295 310.581146,744.249634 300.945587,751.732361 
	C299.898499,752.545410 298.806732,753.433777 297.586487,753.863953 
	C294.909515,754.807739 292.203522,754.809387 290.460938,752.111633 
	C288.610809,749.247314 290.206207,747.041016 292.316406,745.151184 
	C301.938721,736.533386 312.909698,729.882507 324.186096,723.754944 
	C359.995789,704.296082 398.464661,692.162415 437.897522,682.685242 
	C463.779175,676.464844 490.052551,672.424255 516.484924,669.958374 
	C543.815796,667.408630 571.310425,666.336243 598.514648,671.716187 
	C617.246338,675.420471 634.897949,681.521667 647.590393,697.620972 
z"/>
<path fill="#000000" opacity="1.000000" stroke="none" 
	d="
M310.606293,519.526428 
	C295.179443,545.508972 282.654236,572.509583 271.463776,600.130310 
	C262.973450,621.086365 254.928619,642.222900 246.684769,663.278809 
	C245.764252,665.629944 244.817810,668.178711 242.207657,668.944946 
	C239.504181,669.738586 236.496429,670.065125 234.068405,668.149292 
	C231.599655,666.201355 232.761703,663.624939 233.499908,661.258057 
	C240.686035,638.216431 249.461731,615.753601 258.842072,593.547180 
	C268.228180,571.327148 278.331909,549.412476 289.460052,527.995728 
	C291.755402,523.578247 294.465546,519.371826 297.077026,515.125061 
	C298.214722,513.275024 299.617706,511.494720 301.662292,510.646667 
	C305.345062,509.119141 309.349213,508.568176 312.466980,511.418823 
	C315.769989,514.438904 311.559082,516.630005 310.606293,519.526428 
z"/>
<path fill="#000000" opacity="1.000000" stroke="none" 
	d="
M772.952698,711.759949 
	C768.436035,701.955444 770.837402,694.667542 779.902771,689.610352 
	C784.633606,686.971252 789.799744,685.644043 795.090881,684.980408 
	C798.617859,684.538086 799.043030,682.658081 798.485229,679.795349 
	C796.865051,671.481323 790.011536,668.775452 783.214844,673.874390 
	C781.496094,675.163818 780.185547,677.002441 778.452271,678.266052 
	C776.015625,680.042358 773.373291,679.821533 771.108215,677.874451 
	C768.810059,675.899048 770.421814,673.912659 771.504944,672.096252 
	C777.589783,661.892822 793.817383,658.815674 803.178772,666.053406 
	C805.806946,668.085327 807.207397,670.919800 808.103577,673.988403 
	C809.802551,679.805298 809.889160,685.825562 809.699402,691.798279 
	C809.609131,694.639954 809.597229,697.375183 810.028198,700.206970 
	C810.526733,703.482178 810.710449,705.725037 815.331055,705.281860 
	C818.909302,704.938782 818.775940,708.083435 817.276062,710.635254 
	C812.982361,717.940186 805.876404,718.194946 799.687439,711.094849 
	C791.122070,716.718384 782.335632,720.787781 772.952698,711.759949 
M781.539612,704.068176 
	C784.604980,708.570557 787.480225,709.039917 792.906555,705.923889 
	C797.311340,703.394409 800.073914,697.265442 798.420410,693.804565 
	C797.912781,692.742065 797.092712,692.507446 796.038330,692.394897 
	C789.922241,691.742188 782.726562,697.111877 781.539612,704.068176 
z"/>
<path fill="#000000" opacity="1.000000" stroke="none" 
	d="
M724.460693,669.477539 
	C734.175476,660.615173 745.796021,659.291382 755.273315,665.759216 
	C757.970764,667.600159 760.131226,669.812378 760.303101,673.355286 
	C760.430908,675.990173 759.414001,678.010986 756.898743,678.837402 
	C754.476562,679.633362 751.752991,680.055786 750.179565,677.383057 
	C747.683594,673.143433 744.624756,670.202881 739.296265,671.593933 
	C733.513367,673.103699 730.622070,677.204651 729.192078,682.823608 
	C727.680420,688.763306 728.125488,694.388428 730.966675,699.774414 
	C734.847290,707.130798 742.761963,709.038330 749.621155,704.355164 
	C751.545410,703.041321 753.406250,701.630920 755.368530,700.377991 
	C756.814026,699.454956 758.260376,699.765137 759.481445,700.913208 
	C760.784302,702.138184 761.503113,703.522949 760.600464,705.358398 
	C759.483704,707.628967 758.075745,709.656433 756.135864,711.305054 
	C748.672180,717.648376 740.191162,718.662659 731.333008,715.294312 
	C722.095764,711.781921 717.986877,703.982666 716.814758,694.771179 
	C715.637268,685.517334 717.593201,676.853943 724.460693,669.477539 
z"/>
<path fill="#000000" opacity="1.000000" stroke="none" 
	d="
M662.219604,340.310730 
	C655.669128,338.193207 653.460510,334.532959 655.100281,329.175323 
	C656.909363,323.264862 662.792847,319.415894 668.023926,320.882629 
	C672.117188,322.030304 673.900757,325.279327 673.980835,329.148468 
	C674.082458,334.062653 671.464478,337.568787 667.014221,339.702454 
	C665.598022,340.381470 664.125488,340.341156 662.219604,340.310730 
z"/>
<path fill="#000000" opacity="1.000000" stroke="none" 
	d="
M513.491455,518.041382 
	C511.771057,513.200562 513.128357,509.413422 516.536926,506.511719 
	C519.090088,504.338318 522.146362,502.829041 525.709534,504.211060 
	C529.503296,505.682495 531.576904,508.317017 531.344055,512.587708 
	C531.065979,517.690186 528.261108,520.923340 523.726440,522.582458 
	C519.287598,524.206543 516.066895,522.103088 513.491455,518.041382 
z"/>
<path fill="#000000" opacity="1.000000" stroke="none" 
	d="
M701.907104,715.269226 
	C696.233704,716.691101 691.992493,714.316528 690.927795,709.477051 
	C690.060303,705.534241 693.406616,700.711670 697.643860,699.798218 
	C701.786011,698.905273 705.947144,701.603821 706.940430,706.057312 
	C707.881653,710.277344 705.383545,712.896790 701.907104,715.269226 
z"/>
</svg>