<?xml version="1.0" encoding="UTF-8"?>
<svg version="1.1" xmlns="http://www.w3.org/2000/svg" width="1024" height="634">
<path d="M0 0 C1.49660156 0.01740234 1.49660156 0.01740234 3.0234375 0.03515625 C4.52777344 0.04869141 4.52777344 0.04869141 6.0625 0.0625 C7.21878906 0.07990234 7.21878906 0.07990234 8.3984375 0.09765625 C8.96949219 0.55914062 9.54054688 1.020625 10.12890625 1.49609375 C17.13928343 7.13560226 24.25258804 12.63186544 31.3984375 18.09765625 C31.3984375 18.75765625 31.3984375 19.41765625 31.3984375 20.09765625 C31.95660156 20.34644531 32.51476562 20.59523437 33.08984375 20.8515625 C35.7988798 22.31380023 37.9680807 24.06609638 40.3359375 26.03515625 C41.79386719 27.24365234 41.79386719 27.24365234 43.28125 28.4765625 C45.36736824 30.22508495 47.44397169 31.98437168 49.515625 33.75 C50.58064438 34.65765158 51.64574975 35.56520227 52.7109375 36.47265625 C53.25161865 36.93341553 53.7922998 37.3941748 54.34936523 37.86889648 C58.859738 41.69035932 63.49146016 45.33828684 68.15844727 48.96557617 C72.23574144 52.14814496 76.21399809 55.4279076 80.1484375 58.78515625 C87.67363572 65.20590432 95.27445894 71.4461929 103.3984375 77.09765625 C103.3984375 77.75765625 103.3984375 78.41765625 103.3984375 79.09765625 C103.97722656 79.36707031 104.55601562 79.63648438 105.15234375 79.9140625 C112.31093073 83.68632659 118.38757339 89.74939634 124.52905273 94.97607422 C133.57366457 102.66392848 142.97235046 109.88773388 152.3984375 117.09765625 C152.3984375 117.75765625 152.3984375 118.41765625 152.3984375 119.09765625 C152.91664063 119.31808594 153.43484375 119.53851563 153.96875 119.765625 C157.36167608 121.62573399 160.25673725 123.99871752 163.2734375 126.41015625 C163.87285156 126.88388672 164.47226562 127.35761719 165.08984375 127.84570312 C168.90808248 130.87296181 172.66643703 133.96483017 176.3984375 137.09765625 C181.94015682 133.07719321 187.19508076 128.78243807 192.40258789 124.34301758 C197.67298653 119.85145071 203.02679167 115.4675414 208.3984375 111.09765625 C210.12794617 109.68140714 211.85710567 108.26473152 213.5859375 106.84765625 C221.5397298 100.340008 229.52265313 93.86814909 237.50097656 87.390625 C245.81289634 80.64179606 254.11748818 73.88448933 262.3984375 67.09765625 C269.41192471 61.34959945 276.44143049 55.62170261 283.48168945 49.90649414 C287.41988545 46.70855702 291.35080352 43.50216061 295.2734375 40.28515625 C300.2820266 36.1810013 305.33245265 32.13066371 310.3984375 28.09765625 C311.0584375 28.09765625 311.7184375 28.09765625 312.3984375 28.09765625 C312.3984375 27.43765625 312.3984375 26.77765625 312.3984375 26.09765625 C317.3984375 22.09765625 322.3984375 18.09765625 327.3984375 14.09765625 C328.0584375 14.09765625 328.7184375 14.09765625 329.3984375 14.09765625 C329.7284375 13.10765625 330.0584375 12.11765625 330.3984375 11.09765625 C332.33519695 9.63833052 334.27281038 8.18016361 336.2109375 6.72265625 C336.75814453 6.31015625 337.30535156 5.89765625 337.86914062 5.47265625 C340.34290355 3.61358593 342.82278709 1.81475653 345.3984375 0.09765625 C347.87890625 -0.09765625 347.87890625 -0.09765625 350.5859375 -0.02734375 C351.48699219 -0.00929687 352.38804687 0.00875 353.31640625 0.02734375 C354.00347656 0.05054688 354.69054687 0.07375 355.3984375 0.09765625 C362.6745762 5.58750885 369.79583809 11.20022025 376.72460938 17.12353516 C381.52853804 21.22725482 386.44283433 25.1785191 391.3984375 29.09765625 C398.44521351 34.70814671 405.43454169 40.38470071 412.3984375 46.09765625 C414.10666108 47.4936239 415.81499607 48.88945523 417.5234375 50.28515625 C420.88793833 53.03484901 424.24324647 55.79494679 427.58984375 58.56640625 C428.33153809 59.1797583 429.07323242 59.79311035 429.83740234 60.42504883 C431.29602108 61.63169553 432.75345149 62.83978071 434.20947266 64.04956055 C438.83758963 67.87584074 443.56231598 71.53799219 448.3984375 75.09765625 C448.3984375 75.75765625 448.3984375 76.41765625 448.3984375 77.09765625 C448.98238281 77.3709375 449.56632813 77.64421875 450.16796875 77.92578125 C459.75609292 82.9633246 468.10245683 91.58889356 476.42871094 98.47167969 C478.91210438 100.52167973 481.40409815 102.56099385 483.8984375 104.59765625 C487.10419543 107.21609975 490.30336922 109.84225575 493.49609375 112.4765625 C500.3240085 118.11023261 507.15352965 123.73611786 514.08203125 129.24609375 C518.55490092 132.82137237 522.97112195 136.4662626 527.3984375 140.09765625 C528.295625 140.82984375 529.1928125 141.56203125 530.1171875 142.31640625 C532.88138679 144.57224705 535.64060094 146.83404211 538.3984375 149.09765625 C538.93774902 149.53851563 539.47706055 149.979375 540.03271484 150.43359375 C541.69923339 151.79724025 543.36171565 153.16567081 545.0234375 154.53515625 C546.02632812 155.35886719 547.02921875 156.18257812 548.0625 157.03125 C550.3984375 159.09765625 550.3984375 159.09765625 551.3984375 161.09765625 C551.70739691 164.12189356 551.68161518 167.07185031 551.3984375 170.09765625 C550.2734375 172.97265625 550.2734375 172.97265625 548.3984375 175.09765625 C545.2109375 176.91015625 545.2109375 176.91015625 542.3984375 178.09765625 C539.2578125 177.875 539.2578125 177.875 535.3984375 177.09765625 C532.4140625 175.1015625 532.4140625 175.1015625 529.6484375 172.66015625 C526.93662254 170.30057424 524.39147035 168.09301148 521.3984375 166.09765625 C521.40169263 166.8084597 521.40494776 167.51926316 521.40830153 168.25160611 C521.60076887 210.36323689 521.77752092 252.47490803 521.93381576 294.58668936 C521.95258856 299.64112667 521.97149289 304.69556348 521.99047852 309.75 C521.99425606 310.75626332 521.99803361 311.76252663 522.00192562 312.79928277 C522.06343519 329.10061784 522.13560451 345.40188922 522.2117013 361.70316197 C522.28952488 378.42507931 522.35592089 395.14701374 522.41167003 411.86901939 C522.44644201 422.19052174 522.4901672 432.51190692 522.54528234 442.83332102 C522.58220436 449.90748273 522.60804374 456.98163036 522.62511142 464.05586763 C522.63529319 468.13963324 522.65041528 472.22322566 522.67867851 476.30690956 C522.70444301 480.04512371 522.71629912 483.78311379 522.71706638 487.52141427 C522.72110151 489.51526519 522.74004574 491.5090687 522.75950831 493.50282872 C522.75701856 494.68867932 522.75452881 495.87452992 522.75196362 497.09631538 C522.758229 498.62848692 522.758229 498.62848692 522.76462096 500.19161141 C522.32955979 503.64427219 521.0954942 506.08350258 519.3984375 509.09765625 C512.45929974 511.95170945 506.31890372 512.5251618 498.8653326 512.47517967 C497.72782278 512.47953999 496.59031296 512.48390032 495.41833314 512.48839277 C491.60281838 512.49934988 487.7876649 512.48892443 483.97215271 512.47860718 C481.21058834 512.48040076 478.44903832 512.48670492 475.68748051 512.49278891 C469.68132914 512.50361546 463.6752587 512.50330054 457.66910362 512.49564743 C448.73779201 512.48429798 439.80654863 512.49010222 430.87523746 512.49927235 C414.92404949 512.51507043 398.97289755 512.51370011 383.02170615 512.50503561 C369.06322954 512.4974907 355.10476615 512.49551803 341.14628792 512.49910355 C340.22060158 512.4993327 339.29491524 512.49956186 338.34117779 512.49979796 C334.5835818 512.50073196 330.82598581 512.50168716 327.06838982 512.50267725 C291.81616105 512.51185519 256.56395523 512.50353222 221.31173 512.48738656 C189.98620939 512.47314846 158.66072537 512.4744245 127.33520508 512.48876953 C92.14618416 512.5048299 56.95718353 512.51120549 21.76815945 512.50193274 C18.01769674 512.50097058 14.26723403 512.50003206 10.51677132 512.49910355 C9.59330153 512.49886631 8.66983175 512.49862908 7.71837803 512.49838466 C-6.23266588 512.4949709 -20.18369513 512.49896554 -34.13473701 512.50654221 C-49.99542717 512.51511299 -65.85607563 512.51299035 -81.71676058 512.49669997 C-90.59562989 512.48788163 -99.47440893 512.48732975 -108.35327593 512.4986385 C-114.28157994 512.50535713 -120.20981146 512.50119442 -126.13810471 512.48812419 C-129.51744916 512.48097744 -132.89646625 512.48021248 -136.27582819 512.48934214 C-139.91549243 512.49842346 -143.55466067 512.48914905 -147.19429874 512.47517967 C-148.24401711 512.48220317 -149.29373547 512.48922667 -150.37526348 512.496463 C-156.48375561 512.44939053 -161.01646061 511.60625246 -166.6015625 509.09765625 C-168.29236063 506.09039895 -169.53086942 503.64659119 -169.97415799 500.20443547 C-169.97301883 499.1890633 -169.97187967 498.17369114 -169.97070599 497.12755013 C-169.97667913 495.94866632 -169.98265228 494.76978251 -169.98880643 493.55517495 C-169.9800679 492.26918432 -169.97132938 490.98319369 -169.96232605 489.65823364 C-169.96363481 488.27124539 -169.96626253 486.88425786 -169.97009355 485.49727428 C-169.97679667 481.69120787 -169.96480834 477.88539507 -169.94975936 474.07936096 C-169.93680073 469.97308874 -169.94118834 465.86683074 -169.94346619 461.76054382 C-169.94503903 454.64787535 -169.93562867 447.53528946 -169.91875267 440.42264175 C-169.89436875 430.13896792 -169.88655802 419.85533401 -169.8827887 409.5716344 C-169.87622326 392.88692634 -169.85625959 376.20226229 -169.82788086 359.51757812 C-169.80034268 343.31022359 -169.77910791 327.10288102 -169.76635742 310.89550781 C-169.76556925 309.89644063 -169.76478108 308.89737346 -169.76396903 307.86803152 C-169.76005391 302.85599153 -169.75626278 297.84395146 -169.75253332 292.83191133 C-169.72143454 251.25379569 -169.66859622 209.67572849 -169.6015625 168.09765625 C-170.6946875 168.70222656 -171.7878125 169.30679688 -172.9140625 169.9296875 C-173.52894531 170.2697583 -174.14382812 170.6098291 -174.77734375 170.96020508 C-176.59266883 172.0921108 -178.0370834 173.3326129 -179.6015625 174.78515625 C-180.5915625 175.54828125 -181.5815625 176.31140625 -182.6015625 177.09765625 C-186.4765625 177.91015625 -186.4765625 177.91015625 -189.6015625 178.09765625 C-192.4140625 176.91015625 -192.4140625 176.91015625 -195.6015625 175.09765625 C-197.4765625 172.97265625 -197.4765625 172.97265625 -198.6015625 170.09765625 C-198.82987564 167.07884916 -198.77922767 164.11796411 -198.6015625 161.09765625 C-194.59347479 155.79663702 -189.93887409 152.02796413 -184.6015625 148.09765625 C-183.9415625 148.09765625 -183.2815625 148.09765625 -182.6015625 148.09765625 C-182.6015625 147.43765625 -182.6015625 146.77765625 -182.6015625 146.09765625 C-181.86035156 145.53820312 -181.11914062 144.97875 -180.35546875 144.40234375 C-171.55732645 137.71922145 -163.02372928 130.74072192 -154.52001953 123.68847656 C-148.5933623 118.77398197 -142.64438101 113.89826865 -136.56811523 109.16992188 C-130.42840298 104.39093904 -124.45739165 99.46515526 -118.57543945 94.37231445 C-114.48739609 90.83756612 -110.31942438 87.42833705 -106.078125 84.078125 C-103.29920115 81.85586255 -100.57558975 79.57434537 -97.8515625 77.28515625 C-93.4169905 73.57063074 -88.91514676 69.96455666 -84.3515625 66.41015625 C-80.68693426 63.55546396 -77.06422127 60.69777169 -73.6015625 57.59765625 C-70.11723904 54.47892561 -66.47358194 51.59848652 -62.7890625 48.72265625 C-54.20457544 42.01943588 -45.79154014 35.14348508 -37.5390625 28.03515625 C-32.89367202 24.03381696 -28.20404851 20.11563016 -23.390625 16.31640625 C-21.07975479 14.47806692 -18.78658388 12.62219994 -16.5 10.75390625 C-15.41307861 9.86626587 -15.41307861 9.86626587 -14.30419922 8.96069336 C-12.85418131 7.77538167 -11.40525781 6.58872971 -9.95751953 5.40063477 C-9.29349121 4.85850342 -8.62946289 4.31637207 -7.9453125 3.7578125 C-7.34912109 3.26933838 -6.75292969 2.78086426 -6.13867188 2.27758789 C-3.9362298 0.58692675 -2.81856563 0.10580201 0 0 Z M1.3984375 26.09765625 C0.76679688 26.61972656 0.13515625 27.14179688 -0.515625 27.6796875 C-8.12060629 33.93681187 -15.84042081 40.03603464 -23.6015625 46.09765625 C-23.6015625 46.75765625 -23.6015625 47.41765625 -23.6015625 48.09765625 C-24.16746094 48.35417969 -24.73335938 48.61070312 -25.31640625 48.875 C-27.86411715 50.23813421 -29.92472388 51.83400696 -32.1640625 53.66015625 C-33.04320312 54.37429687 -33.92234375 55.0884375 -34.828125 55.82421875 C-35.74335938 56.57445312 -36.65859375 57.3246875 -37.6015625 58.09765625 C-38.49617188 58.82726562 -39.39078125 59.556875 -40.3125 60.30859375 C-43.07881754 62.56762096 -45.84081185 64.83183009 -48.6015625 67.09765625 C-53.89140488 71.43917954 -59.18357086 75.77471721 -64.5390625 80.03515625 C-68.18780456 82.9426578 -71.77871952 85.9099146 -75.3515625 88.91015625 C-79.78613664 92.62468356 -84.28801092 96.23071086 -88.8515625 99.78515625 C-93.25768572 103.21808235 -97.54292734 106.72387486 -101.7109375 110.4453125 C-104.60630358 112.97576674 -107.6250407 115.34452262 -110.63671875 117.734375 C-114.28909961 120.64569307 -117.91524016 123.58841427 -121.5390625 126.53515625 C-122.57135986 127.37457764 -122.57135986 127.37457764 -123.62451172 128.23095703 C-131.31221815 134.48576395 -138.98777488 140.75283323 -146.6015625 147.09765625 C-146.6015625 259.95765625 -146.6015625 372.81765625 -146.6015625 489.09765625 C-116.2415625 489.09765625 -85.8815625 489.09765625 -54.6015625 489.09765625 C-54.55257812 478.03878906 -54.50359375 466.97992187 -54.453125 455.5859375 C-54.41775016 448.59048686 -54.38187795 441.59504466 -54.34375 434.59960938 C-54.28329113 423.49000957 -54.22489461 412.38042569 -54.1796875 401.27075195 C-54.14675627 393.18017781 -54.10691875 385.08967226 -54.05877244 376.99917382 C-54.03351873 372.7149451 -54.01173409 368.43076182 -53.99821854 364.14647865 C-53.98538798 360.1139108 -53.9633228 356.08149889 -53.93417931 352.04901695 C-53.92511132 350.56919414 -53.91941511 349.08934622 -53.91734886 347.60949707 C-53.91402101 345.58808398 -53.8973579 343.56670598 -53.8800354 341.54536438 C-53.87173926 339.84880439 -53.87173926 339.84880439 -53.86327553 338.11797047 C-53.59894318 335.06742781 -52.89418081 332.85631363 -51.6015625 330.09765625 C-48.83639129 329.17593251 -47.21712379 328.97389787 -44.3684845 328.97740173 C-43.50611679 328.97602707 -42.64374908 328.9746524 -41.75524902 328.97323608 C-40.81225952 328.97683136 -39.86927002 328.98042664 -38.89770508 328.98413086 C-37.9024028 328.98398483 -36.90710052 328.98383881 -35.88163757 328.98368835 C-32.58643425 328.98438593 -29.29128721 328.99217114 -25.99609375 329 C-23.71351655 329.00186473 -21.43093895 329.00328837 -19.14836121 329.00428772 C-13.13631081 329.00810858 -7.12428452 329.01793521 -1.11224365 329.0289917 C5.02087071 329.03921507 11.15398895 329.04378733 17.28710938 329.04882812 C29.32422935 329.05955784 41.36133142 329.07662911 53.3984375 329.09765625 C55.8359375 331.34765625 55.8359375 331.34765625 58.3984375 334.09765625 C59.62131812 337.45172319 59.53605917 340.76858434 59.55665588 344.31121826 C59.57133911 346.22527214 59.57133911 346.22527214 59.58631897 348.17799377 C59.59222278 349.58969079 59.59803325 351.00138819 59.60375977 352.41308594 C59.61334115 353.90134451 59.62335138 355.38960037 59.63375854 356.87785339 C59.6607855 360.91672659 59.68180702 364.95561145 59.70176053 368.99452496 C59.72363371 373.21595571 59.75101588 377.43735061 59.77781677 381.65875244 C59.82772564 389.65198343 59.87267118 397.64523434 59.91583914 405.63850427 C59.97446065 416.44023517 60.04073784 427.24191892 60.10658932 438.04360771 C60.21013576 455.06159211 60.30344369 472.07961698 60.3984375 489.09765625 C95.0484375 489.09765625 129.6984375 489.09765625 165.3984375 489.09765625 C165.3984375 379.86765625 165.3984375 270.63765625 165.3984375 158.09765625 C160.1184375 153.80765625 154.8384375 149.51765625 149.3984375 145.09765625 C142.5234375 139.28515625 142.5234375 139.28515625 139.33203125 136.5703125 C135.99677157 133.75910161 132.60475087 131.03073787 129.1875 128.3203125 C122.88380981 123.29678348 116.64796179 118.18829606 110.3984375 113.09765625 C109.39167969 112.2778125 108.38492188 111.45796875 107.34765625 110.61328125 C102.73368947 106.84732284 98.14796203 103.05139093 93.5859375 99.22265625 C89.17099606 95.53109923 84.68783556 91.94712916 80.1484375 88.41015625 C75.76810754 84.9960235 71.50015927 81.51608789 67.35546875 77.81640625 C63.1433122 74.11710709 58.75153905 70.6287898 54.3984375 67.09765625 C53.10668869 66.04827819 51.81502685 64.99879307 50.5234375 63.94921875 C48.45374138 62.26748261 46.38393683 60.58588115 44.3137207 58.90478516 C38.66385861 54.31633082 33.02782187 49.71121186 27.3984375 45.09765625 C25.44033473 43.49320816 23.48200202 41.88904065 21.5234375 40.28515625 C20.22792969 39.22361328 20.22792969 39.22361328 18.90625 38.140625 C16.41531736 36.11140729 13.91031932 34.10085949 11.3984375 32.09765625 C10.7384375 32.09765625 10.0784375 32.09765625 9.3984375 32.09765625 C9.3984375 31.43765625 9.3984375 30.77765625 9.3984375 30.09765625 C7.7484375 28.77765625 6.0984375 27.45765625 4.3984375 26.09765625 C3.4084375 26.09765625 2.4184375 26.09765625 1.3984375 26.09765625 Z M349.3984375 26.09765625 C344.26319619 30.18579847 339.14914808 34.29550752 334.0859375 38.47265625 C327.96847087 43.49458802 321.69438181 48.3031295 315.3984375 53.09765625 C315.3984375 53.75765625 315.3984375 54.41765625 315.3984375 55.09765625 C314.87765625 55.32195312 314.356875 55.54625 313.8203125 55.77734375 C310.49184141 57.59189734 307.62551174 59.886798 304.6484375 62.22265625 C304.04644531 62.69058594 303.44445312 63.15851563 302.82421875 63.640625 C301.34657134 64.78990632 299.87217745 65.9433686 298.3984375 67.09765625 C298.3984375 67.75765625 298.3984375 68.41765625 298.3984375 69.09765625 C297.84414063 69.34257812 297.28984375 69.5875 296.71875 69.83984375 C293.93349799 71.34969417 291.70351323 73.18932758 289.2734375 75.22265625 C285.79706358 78.10896144 282.31410727 80.97808416 278.7734375 83.78515625 C271.89912686 89.26706266 265.13831472 94.88796997 258.35644531 100.48339844 C254.04829013 104.03520917 249.72474176 107.56799673 245.3984375 111.09765625 C244.74359375 111.63374512 244.08875 112.16983398 243.4140625 112.72216797 C241.22284686 114.51583167 239.02954141 116.3069145 236.8359375 118.09765625 C236.13202881 118.67459229 235.42812012 119.25152832 234.70288086 119.84594727 C234.04425049 120.38276123 233.38562012 120.9195752 232.70703125 121.47265625 C232.11720459 121.95476562 231.52737793 122.436875 230.91967773 122.93359375 C229.3984375 124.09765625 229.3984375 124.09765625 227.3984375 125.09765625 C227.3984375 125.75765625 227.3984375 126.41765625 227.3984375 127.09765625 C226.84285156 127.34386719 226.28726563 127.59007812 225.71484375 127.84375 C222.95499162 129.33770031 220.74526891 131.14824033 218.3359375 133.16015625 C217.36140625 133.96839844 216.386875 134.77664063 215.3828125 135.609375 C213.90554688 136.84107422 213.90554688 136.84107422 212.3984375 138.09765625 C204.16445899 144.89911511 195.80025532 151.49622797 187.3984375 158.09765625 C187.3984375 267.32765625 187.3984375 376.55765625 187.3984375 489.09765625 C222.0484375 489.09765625 256.6984375 489.09765625 292.3984375 489.09765625 C292.8934375 412.86765625 292.8934375 412.86765625 293.3984375 335.09765625 C297.3984375 330.09765625 297.3984375 330.09765625 299.3984375 329.09765625 C300.76690491 329.0060952 302.13973497 328.97571681 303.51126099 328.97740173 C304.37225403 328.97602707 305.23324707 328.9746524 306.12033081 328.97323608 C307.54020798 328.978629 307.54020798 328.978629 308.98876953 328.98413086 C309.98392578 328.98398483 310.97908203 328.98383881 312.00439453 328.98368835 C315.30503493 328.98438694 318.60561942 328.99217681 321.90625 329 C324.19025644 329.00186437 326.47426328 329.00328818 328.75827026 329.00428772 C334.77855528 329.00811138 340.79881629 329.01794039 346.8190918 329.0289917 C352.95881831 329.03920907 359.09854869 329.04378604 365.23828125 329.04882812 C377.29167723 329.05956277 389.34505537 329.0766374 401.3984375 329.09765625 C403.2734375 330.72265625 403.2734375 330.72265625 405.3984375 333.09765625 C407.12316129 337.34593087 407.65396446 340.94752101 407.6769104 345.51376343 C407.68807388 346.78413452 407.69923737 348.05450562 407.71073914 349.3633728 C407.71310371 350.75836152 407.71527943 352.15335057 407.71728516 353.54833984 C407.72658993 355.02704411 407.73675941 356.50574316 407.74772644 357.98443604 C407.77497871 361.98807422 407.79016166 365.9916773 407.80315447 369.99538374 C407.81880593 374.18345626 407.84558972 378.37145734 407.8711853 382.55947876 C407.91793743 390.48534551 407.95469879 398.41122575 407.98785818 406.33715975 C408.03325907 417.05082932 408.09411866 427.7644104 408.15410614 438.47800636 C408.24817525 455.35117859 408.32161212 472.2243763 408.3984375 489.09765625 C438.4284375 489.09765625 468.4584375 489.09765625 499.3984375 489.09765625 C499.3984375 376.23765625 499.3984375 263.37765625 499.3984375 147.09765625 C489.57382072 138.73092933 489.57382072 138.73092933 479.5234375 130.72265625 C473.7216409 126.23296461 468.17576577 121.49347585 462.65942383 116.65942383 C458.74402305 113.23671996 454.76013477 109.96616985 450.6171875 106.8203125 C447.40104387 104.32327141 444.30442819 101.68766029 441.18847656 99.06738281 C437.34182932 95.84856249 433.41959825 92.73972281 429.4609375 89.66015625 C423.67090219 85.15024163 418.05158899 80.46966281 412.46875 75.70703125 C407.8406356 71.76147013 403.11830304 67.932547 398.3984375 64.09765625 C397.14828318 63.07701191 395.89829375 62.05616558 394.6484375 61.03515625 C387.67945806 55.34960156 380.67380645 49.72453806 373.56738281 44.21166992 C368.58712876 40.31665461 363.80854259 36.20245997 359.10302734 31.98022461 C356.02523916 29.27083972 353.3274208 27.33415193 349.3984375 26.09765625 Z M-31.6015625 350.09765625 C-32.75913158 352.07926274 -32.75913158 352.07926274 -32.72461033 354.46771431 C-32.72368854 355.46878149 -32.72276674 356.46984867 -32.72181702 357.50125122 C-32.72319168 358.6483255 -32.72456635 359.79539978 -32.72598267 360.97723389 C-32.72238739 362.24174377 -32.71879211 363.50625366 -32.71508789 364.80908203 C-32.71480593 366.14926145 -32.71496393 367.48944103 -32.7155304 368.82962036 C-32.71581801 372.47402726 -32.70992701 376.11840142 -32.70295644 379.76280069 C-32.69671701 383.5691502 -32.69611863 387.37550041 -32.69493103 391.18185425 C-32.69181946 398.39248584 -32.6836084 405.60310233 -32.67358154 412.81372726 C-32.66241501 421.02159604 -32.65690859 429.22946554 -32.65188611 437.43734002 C-32.64142566 454.32412085 -32.62382957 471.21088695 -32.6015625 488.09765625 C-32.2715625 488.42765625 -31.9415625 488.75765625 -31.6015625 489.09765625 C-8.8315625 489.09765625 13.9384375 489.09765625 37.3984375 489.09765625 C37.3984375 443.22765625 37.3984375 397.35765625 37.3984375 350.09765625 C14.6284375 350.09765625 -8.1415625 350.09765625 -31.6015625 350.09765625 Z M315.3984375 350.09765625 C315.3984375 395.96765625 315.3984375 441.83765625 315.3984375 489.09765625 C338.4984375 489.09765625 361.5984375 489.09765625 385.3984375 489.09765625 C385.3984375 443.22765625 385.3984375 397.35765625 385.3984375 350.09765625 C362.2984375 350.09765625 339.1984375 350.09765625 315.3984375 350.09765625 Z " fill="#000000" transform="translate(335.6015625,102.90234375)"/>
<path d="M0 0 C1.09109825 -0.00744736 1.09109825 -0.00744736 2.20423889 -0.01504517 C4.60662796 -0.02962811 7.00895092 -0.03646349 9.41137695 -0.04199219 C11.08803813 -0.04774827 12.76469931 -0.05350594 14.44136047 -0.05926514 C17.95765488 -0.06976514 21.4739265 -0.07561387 24.99023438 -0.07910156 C29.47786178 -0.08457416 33.96518392 -0.10857984 38.45271587 -0.13707352 C41.9178808 -0.15577737 45.38297346 -0.16090967 48.84818459 -0.16243744 C50.5014595 -0.16544871 52.15473362 -0.1734252 53.8079586 -0.18662262 C69.14056735 -0.30025085 69.14056735 -0.30025085 75.86555481 1.93048096 C78.74891461 3.85206959 80.57613469 6.44372065 82.7121582 9.16113281 C82.91250867 20.13987573 83.09621142 31.11875948 83.25874615 42.09813118 C83.33474143 47.19645923 83.41643877 52.29456216 83.51123047 57.39257812 C83.60252233 62.31370863 83.67875338 67.23486444 83.74460793 72.15639877 C83.77234982 74.03272051 83.80549067 75.90897054 83.84415245 77.78509903 C83.89743633 80.41582768 83.93140503 83.04615827 83.9609375 85.67724609 C83.99114235 86.83710777 83.99114235 86.83710777 84.0219574 88.020401 C84.04322982 91.6075749 83.69368672 94.20661832 82.3372345 97.54684448 C80.7121582 100.16113281 80.7121582 100.16113281 78.4621582 102.47363281 C75.7121582 104.16113281 75.7121582 104.16113281 72.52378845 104.75553894 C68.66165715 105.16650661 64.85477072 105.32284842 60.97607422 105.33813477 C60.23687744 105.34470596 59.49768066 105.35127716 58.73608398 105.35804749 C56.31274282 105.37760793 53.88946294 105.38940084 51.46606445 105.39941406 C50.63296186 105.40348959 49.79985928 105.40756512 48.94151115 105.41176414 C44.53620534 105.43254594 40.13093 105.44688455 35.72558594 105.45629883 C31.19189815 105.46737941 26.65869892 105.50182074 22.12518406 105.54147053 C18.62232076 105.56767455 15.1195737 105.57599373 11.61662102 105.57958031 C9.9457562 105.58443219 8.27489608 105.5960061 6.60412788 105.6146183 C-6.45713577 105.75114297 -6.45713577 105.75114297 -11.14041138 104.24179077 C-13.37402344 103.13452148 -13.37402344 103.13452148 -16.2878418 101.16113281 C-18.73935692 95.40293408 -19.72651722 90.84765836 -19.67602539 84.62133789 C-19.68128235 83.80890121 -19.68653931 82.99646454 -19.69195557 82.15940857 C-19.70505701 79.49962599 -19.69645531 76.84045169 -19.6862793 74.18066406 C-19.68830228 72.32077419 -19.69121559 70.46088509 -19.69497681 68.60099792 C-19.69938629 64.71512248 -19.69301135 60.82945472 -19.67895508 56.94360352 C-19.66182815 51.96690588 -19.67173523 46.99069241 -19.68967247 42.01401234 C-19.70051701 38.17840429 -19.6970615 34.34291094 -19.68928909 30.50729942 C-19.6872908 28.6721052 -19.68973333 26.8369005 -19.69672775 25.00171852 C-19.70435725 22.43844637 -19.69271896 19.87595798 -19.67602539 17.31274414 C-19.68209808 16.55782684 -19.68817078 15.80290955 -19.69442749 15.02511597 C-19.65418403 11.68507667 -19.35269568 9.29822761 -17.91592407 6.2610321 C-16.2878418 4.16113281 -16.2878418 4.16113281 -13.8503418 2.41113281 C-9.1779888 0.13193623 -5.19650983 0.02700075 0 0 Z M2.7121582 24.16113281 C2.7121582 43.30113281 2.7121582 62.44113281 2.7121582 82.16113281 C21.8521582 82.16113281 40.9921582 82.16113281 60.7121582 82.16113281 C60.7121582 63.02113281 60.7121582 43.88113281 60.7121582 24.16113281 C41.5721582 24.16113281 22.4321582 24.16113281 2.7121582 24.16113281 Z " fill="#000000" transform="translate(306.287841796875,275.8388671875)"/>
<path d="M0 0 C1.12583496 -0.0076664 1.12583496 -0.0076664 2.27441406 -0.01548767 C4.735109 -0.02929448 7.19552113 -0.02843399 9.65625 -0.02612305 C11.37825625 -0.03001425 13.10026155 -0.03434979 14.82226562 -0.03910828 C18.42320881 -0.04655085 22.0240539 -0.04629303 25.625 -0.04101562 C30.22822411 -0.03521683 34.83104641 -0.05217132 39.4342041 -0.0753603 C42.98765388 -0.09012426 46.5410074 -0.09096584 50.09448242 -0.08785057 C51.79126787 -0.08836222 53.48805894 -0.0935705 55.18481445 -0.10366249 C57.56097227 -0.11606466 59.93635367 -0.10921369 62.3125 -0.09765625 C63.35229004 -0.10912186 63.35229004 -0.10912186 64.41308594 -0.12081909 C67.99548515 -0.08250304 70.87996342 0.40557445 74.14648438 1.79792786 C75.63631836 2.52890938 75.63631836 2.52890938 77.15625 3.2746582 C78.69248449 5.6106772 80.01715238 7.73800778 81.15625 10.2746582 C81.52460279 13.1137233 81.69591875 15.55224055 81.65795898 18.37792969 C81.66606346 19.54524628 81.66606346 19.54524628 81.67433167 20.73614502 C81.68676329 23.28974313 81.67036436 25.84220125 81.65234375 28.39575195 C81.65249888 30.18262287 81.65399025 31.96949413 81.65675354 33.75636292 C81.6581351 37.49446559 81.64562167 41.23218346 81.62280273 44.97021484 C81.59443949 49.74601634 81.59715311 54.52117794 81.60989285 59.29702663 C81.61687064 62.98522848 81.60903648 66.67328419 81.59663582 70.36146736 C81.59214025 72.12160747 81.59176784 73.88176338 81.59570122 75.64190483 C81.59863362 78.10892386 81.58201019 80.57508233 81.56030273 83.04199219 C81.56480438 83.75964249 81.56930603 84.47729279 81.57394409 85.21669006 C81.49781358 90.46207041 80.20056561 94.44306446 78.15625 99.2746582 C75.47416498 101.44932173 73.23876524 102.96986241 69.89855957 103.91033936 C62.13408941 105.36297168 54.57293171 105.56509258 46.6875 105.5402832 C45.31709729 105.54163507 43.94669504 105.54357991 42.57629395 105.54608154 C39.72220231 105.54900832 36.86823696 105.54481489 34.01416016 105.53540039 C30.38677156 105.52400726 26.75967911 105.53057999 23.13230133 105.54254532 C20.30785967 105.54983061 17.48348627 105.54744568 14.65904236 105.54228973 C12.68126225 105.5403387 10.70347929 105.54632875 8.72570801 105.55255127 C0.28819998 105.50912761 -7.79498061 104.95758133 -15.84375 102.2746582 C-15.84375 101.6146582 -15.84375 100.9546582 -15.84375 100.2746582 C-16.83375 99.9446582 -17.82375 99.6146582 -18.84375 99.2746582 C-20.80671045 95.9367188 -21.82281451 93.48017263 -22.2179718 89.60108948 C-22.23260403 88.21834916 -22.23103215 86.83537344 -22.21606445 85.45263672 C-22.21971512 84.69247253 -22.22336578 83.93230835 -22.22712708 83.14910889 C-22.23519553 80.65036277 -22.22165241 78.15227283 -22.20703125 75.65356445 C-22.20651214 73.90770976 -22.2070318 72.16185448 -22.20854187 70.41600037 C-22.20845231 66.761945 -22.19805682 63.10811099 -22.17993164 59.45410156 C-22.157262 54.78252901 -22.15669913 50.1112801 -22.16344929 45.4396677 C-22.1667996 41.83559826 -22.16013891 38.23160187 -22.15032005 34.62754631 C-22.14648482 32.90565308 -22.14531285 31.1837517 -22.1469059 29.46185493 C-22.14727899 27.04977213 -22.13458803 24.63809564 -22.1184082 22.22607422 C-22.12088562 21.52195908 -22.12336304 20.81784393 -22.12591553 20.09239197 C-22.0771924 15.51449541 -21.36399043 11.59117464 -19.84375 7.2746582 C-17.65625 4.4621582 -17.65625 4.4621582 -14.84375 2.2746582 C-9.8505039 0.51979415 -5.24883612 -0.01875892 0 0 Z M1.15625 24.2746582 C1.15625 43.4146582 1.15625 62.5546582 1.15625 82.2746582 C19.96625 82.2746582 38.77625 82.2746582 58.15625 82.2746582 C58.15625 63.1346582 58.15625 43.9946582 58.15625 24.2746582 C39.34625 24.2746582 20.53625 24.2746582 1.15625 24.2746582 Z " fill="#000000" transform="translate(656.84375,275.725341796875)"/>
</svg>
