<?xml version="1.0" encoding="UTF-8"?>
<svg version="1.1" xmlns="http://www.w3.org/2000/svg" width="1024" height="764">
<path d="M0 0 C3.34665585 1.24266052 3.34665585 1.24266052 6.88426208 3.02124023 C7.54048949 3.34636345 8.19671689 3.67148666 8.87282997 4.0064621 C11.05937537 5.09399274 13.23533798 6.20116665 15.41186523 7.30859375 C16.98237448 8.09483625 18.55350231 8.87984417 20.12519836 9.66371155 C24.38828089 11.79424871 28.64250563 13.94194954 32.89536548 16.09280396 C37.36181144 18.34796634 41.83623751 20.58718231 46.30982971 22.828125 C54.79602614 27.08210613 63.27499157 31.35029719 71.75144392 35.62365532 C81.3366437 40.45514644 90.92962367 45.27108769 100.52338111 50.08555794 C116.95718663 58.33289615 133.38546037 66.59115794 149.80630493 74.86427307 C156.74948291 78.36184673 163.69534631 81.85398916 170.64735413 85.33398438 C171.29460526 85.65831703 171.94185639 85.98264969 172.6087212 86.31681061 C177.4759053 88.75088186 182.37264092 91.11863844 187.28344727 93.46313477 C201.33410611 100.17652357 215.31806334 107.03183555 229.27441406 113.9387207 C231.46029647 115.01819085 233.64828126 116.0934145 235.83837891 117.16430664 C238.94107246 118.68264102 242.03569474 120.21636594 245.12890625 121.75390625 C246.06622086 122.20866837 247.00353546 122.66343048 247.96925354 123.13197327 C251.85279817 125.07986153 254.63796656 126.60878502 257.61694336 129.82788086 C258.07335205 130.54468018 258.52976074 131.26147949 259 132 C259.05447047 133.41623216 259.09300508 134.83308191 259.125 136.25 C259.14820313 137.03890625 259.17140625 137.8278125 259.1953125 138.640625 C258.9828378 141.20731941 258.28654105 142.7916067 257 145 C252 148 252 148 248.71875 148.34375 C244.75487679 148.34375 241.9683884 147.29969928 238.40625 145.59375 C236.42905319 144.57878897 234.46037755 143.5470783 232.5 142.5 C231.48679687 141.97535156 230.47359375 141.45070312 229.4296875 140.91015625 C226.9452045 139.62103771 224.46947982 138.3175656 222 137 C222.24365761 137.87008831 222.24365761 137.87008831 222.49223759 138.75775416 C223.31106541 142.37364465 223.13465533 146.03316574 223.12304783 149.72254562 C223.12420167 150.61693393 223.12535552 151.51132224 223.12654433 152.43281323 C223.12920624 155.45121926 223.12469228 158.46957272 223.12025452 161.48797607 C223.1206903 163.66519822 223.12156535 165.84242031 223.12284368 168.01964211 C223.12508714 174.01924077 223.12106936 180.01882168 223.11606562 186.01841807 C223.1117592 192.48193916 223.11320768 198.9454592 223.1139679 205.40898132 C223.11466602 216.61304706 223.11138233 227.81710735 223.10573006 239.02117157 C223.09981615 250.77392352 223.09596474 262.52667315 223.09487724 274.27942657 C223.0948085 275.00975637 223.09473976 275.74008616 223.09466894 276.49254716 C223.09433062 280.201415 223.09402923 283.91028283 223.09374207 287.61915067 C223.09164079 313.8995851 223.08490103 340.1800165 223.07543945 366.46044922 C223.06625738 391.9939777 223.05917261 417.52750535 223.05493164 443.06103516 C223.05480011 443.84787652 223.05466859 444.63471788 223.05453308 445.44540292 C223.05321457 453.34707619 223.05193876 461.24874947 223.05069422 469.15042276 C223.0481579 485.24751903 223.04533665 501.34461524 223.04234314 517.44171143 C223.04220585 518.18185493 223.04206856 518.92199843 223.04192711 519.68457052 C223.03272405 569.1230483 223.0168578 618.5615243 223 668 C223.90766113 668.01458252 224.81532227 668.02916504 225.75048828 668.04418945 C229.1390931 668.10548149 232.52691689 668.17967576 235.91503906 668.26245117 C237.37749708 668.29557135 238.84007895 668.32364305 240.30273438 668.34643555 C242.41329403 668.38022175 244.52273186 668.4325438 246.6328125 668.48828125 C247.90012207 668.51446533 249.16743164 668.54064941 250.47314453 668.56762695 C254.2799226 669.03431697 256.73184539 670.02595293 260 672 C261.875 674.1875 261.875 674.1875 263 676 C263 678.97 263 681.94 263 685 C261.35 686.98 259.7 688.96 258 691 C254.15319851 692.28226716 250.53355859 692.13581421 246.52544117 692.12304783 C245.20584996 692.1247786 245.20584996 692.1247786 243.85960034 692.12654433 C240.88504473 692.12921025 237.91054228 692.124689 234.93598938 692.12025452 C232.7926287 692.12069022 230.64926806 692.12156512 228.50590771 692.12284368 C222.59526221 692.12508875 216.68463468 692.12106718 210.77399147 692.11606562 C204.40793156 692.11176149 198.04187272 692.11320752 191.67581177 692.1139679 C180.6392473 692.11449315 169.60268883 692.11138093 158.56612587 692.10573006 C146.98838587 692.09981726 135.41064822 692.09596496 123.83290672 692.09487724 C123.11359896 692.0948085 122.3942912 692.09473976 121.65318624 692.09466894 C118.00032981 692.09433062 114.34747337 692.09402923 110.69461694 692.09374207 C84.80739602 692.09164049 58.92017817 692.08489988 33.03295898 692.07543945 C7.8806154 692.06625818 -17.27172734 692.05917302 -42.42407227 692.05493164 C-43.19909271 692.05480011 -43.97411315 692.05466859 -44.77261905 692.05453308 C-52.55554475 692.05321458 -60.33847045 692.05193876 -68.12139616 692.05069422 C-83.97674889 692.04815786 -99.83210157 692.04533661 -115.68745422 692.04234314 C-116.78100955 692.0421372 -116.78100955 692.0421372 -117.89665689 692.04192711 C-166.59777257 692.0327232 -215.29888644 692.01685686 -264 692 C-270 688 -270 688 -271 686.4375 C-272.32010877 683.21973488 -272.13242105 680.4429472 -272 677 C-270.515 674.525 -270.515 674.525 -269 672 C-263 669 -263 669 -232 669 C-231.67 493.77 -231.34 318.54 -231 138 C-237.6 141.3 -244.2 144.6 -251 148 C-253.64 148 -256.28 148 -259 148 C-264.75 144.375 -264.75 144.375 -267 141 C-267 138.03 -267 135.06 -267 132 C-265.31566249 129.30028172 -263.56299924 127.35293304 -260.85946655 125.65814209 C-258.09211902 124.19061183 -255.29767909 122.79912518 -252.48046875 121.4296875 C-251.43087479 120.90794952 -250.38128082 120.38621155 -249.29988098 119.84866333 C-245.93455621 118.17944582 -242.56120213 116.52720876 -239.1875 114.875 C-236.99100673 113.78752764 -234.79503779 112.69899554 -232.59960938 111.609375 C-222.39305934 106.55532405 -212.15114429 101.58152343 -201.86328125 96.6953125 C-187.13003378 89.69038806 -172.57619299 82.32422036 -158 75 C-152.48047313 72.22655764 -146.96014576 69.45472756 -141.4375 66.6875 C-140.77164446 66.35382227 -140.10578892 66.02014454 -139.41975594 65.67635536 C-128.91287062 60.41532715 -118.35113705 55.28028546 -107.73022461 50.25268555 C-102.11040325 47.58855626 -96.54938523 44.81492158 -90.99691772 42.01359558 C-87.8105454 40.40655136 -84.61938149 38.80937989 -81.42591763 37.21648407 C-74.1374814 33.5805709 -66.86781316 29.90934196 -59.60899353 26.21472168 C-54.74937222 23.74180086 -49.88247157 21.28331367 -45.01489162 18.82610321 C-41.33714669 16.96882114 -37.66227256 15.10623675 -33.99291992 13.23242188 C-30.39501195 11.39539387 -26.79039819 9.57220521 -23.18077278 7.75831604 C-21.81919632 7.07109797 -20.4600788 6.3789839 -19.10360527 5.68174744 C-17.21401045 4.71145927 -15.31630286 3.75919243 -13.41577148 2.81054688 C-12.34262192 2.26619995 -11.26947235 1.72185303 -10.1638031 1.16101074 C-6.44981016 -0.20190141 -3.94636972 -0.27636607 0 0 Z M-5 25 C-5.70677383 25.35338692 -6.41354767 25.70677383 -7.14173889 26.07086945 C-49.46939087 47.23469543 -91.79704285 68.39852142 -134.12469482 89.56234741 C-134.72966797 89.8648428 -135.33464111 90.16733818 -135.95794678 90.47900009 C-137.7425648 91.37128267 -139.52725735 92.26341616 -141.31195068 93.1555481 C-143.95793915 94.47846384 -146.6031714 95.80288154 -149.24810791 97.12789917 C-149.96151431 97.48509584 -150.67492071 97.84229251 -151.40994549 98.21031332 C-152.77605592 98.8943341 -154.1419951 99.57869707 -155.50772572 100.26347589 C-162.28142445 103.65413957 -169.11757562 106.91090537 -175.9609375 110.15820312 C-186.72034048 115.29145232 -197.32906755 120.66453378 -208 126 C-208 177.81 -208 229.62 -208 283 C-73.36 283 61.28 283 200 283 C200 231.19 200 179.38 200 126 C183.8196875 117.90984375 183.8196875 117.90984375 167.3125 109.65625 C123.45061747 87.72530874 79.58873494 65.79436747 35.72685242 43.86342621 C35.12088919 43.56045215 34.51492596 43.25747808 33.8906002 42.94532299 C32.55771201 42.27886276 31.22485037 41.61234944 29.89200783 40.94579792 C29.19427443 40.59687835 28.49654102 40.24795877 27.77766418 39.88846588 C27.14887769 39.57400465 26.52009119 39.25954343 25.87225056 38.93555307 C23.92977403 37.96490848 21.98643556 36.99600377 20.04296875 36.02734375 C17.22452958 34.61915909 14.41665559 33.19183594 11.61328125 31.75390625 C10.89333984 31.38716797 10.17339844 31.02042969 9.43164062 30.64257812 C8.05670722 29.94180562 6.68414843 29.23634684 5.31445312 28.52539062 C1.86559415 26.77421197 -1.2049695 25.66756544 -5 25 Z M-208 306 C-208 363.42 -208 420.84 -208 480 C-73.36 480 61.28 480 200 480 C200 422.58 200 365.16 200 306 C65.36 306 -69.28 306 -208 306 Z M-208 502 C-208 557.11 -208 612.22 -208 669 C-159.49 669 -110.98 669 -61 669 C-60.75026687 627.05523473 -60.75026687 627.05523473 -60.52197266 585.11035156 C-60.4675293 577.00341797 -60.4675293 577.00341797 -60.43954468 573.2098999 C-60.42184253 570.55669756 -60.40731257 567.90365389 -60.39730835 565.25042725 C-60.38195255 561.23486578 -60.3509692 557.21956388 -60.31884766 553.20410156 C-60.31667551 552.01934361 -60.31450336 550.83458565 -60.3122654 549.61392593 C-60.30111387 548.53366009 -60.28996235 547.45339424 -60.2784729 546.34039307 C-60.27294214 545.40016422 -60.26741138 544.45993538 -60.26171303 543.49121475 C-59.98826527 540.88829854 -59.32030943 539.23890022 -58 537 C-55.9477614 535.83495734 -54.31858016 535.0384638 -51.961689 534.75390434 C-50.87212969 534.75666972 -50.87212969 534.75666972 -49.76055908 534.75949097 C-48.92205917 534.75674164 -48.08355927 534.75399231 -47.21965027 534.75115967 C-46.30830826 534.75835022 -45.39696625 534.76554077 -44.45800781 534.77294922 C-43.49182022 534.77265717 -42.52563263 534.77236511 -41.53016663 534.77206421 C-38.33772795 534.77345715 -35.14552289 534.78901682 -31.953125 534.8046875 C-29.73923876 534.80841775 -27.52535088 534.81126467 -25.3114624 534.81326294 C-19.48516276 534.8208984 -13.65896287 534.84054624 -7.83270264 534.8626709 C-1.88718007 534.88313114 4.05835862 534.89226504 10.00390625 534.90234375 C21.66931465 534.92379213 33.33464903 534.95792712 45 535 C47.475 536.485 47.475 536.485 50 538 C51.26579638 540.53159277 51.13895197 542.30293202 51.15821838 545.1378479 C51.16799241 546.22375528 51.17776644 547.30966267 51.18783665 548.42847633 C51.1936069 549.62979887 51.19937716 550.83112141 51.20532227 552.06884766 C51.22037135 553.98721719 51.22037135 553.98721719 51.23572445 555.94434166 C51.26281611 559.41044008 51.28397042 562.87655121 51.30391693 566.34269714 C51.32351266 569.59266669 51.34843353 572.84259345 51.3729248 576.0925293 C51.4414815 585.60331571 51.50146435 595.11416235 51.5625 604.625 C51.706875 625.86875 51.85125 647.1125 52 669 C100.84 669 149.68 669 200 669 C200 613.89 200 558.78 200 502 C65.36 502 -69.28 502 -208 502 Z M-38 557 C-38 593.96 -38 630.92 -38 669 C-15.56 669 6.88 669 30 669 C30 632.04 30 595.08 30 557 C7.56 557 -14.88 557 -38 557 Z " fill="#000000" transform="translate(516,54)"/>
<path d="M0 0 C1.27432892 -0.00788544 1.27432892 -0.00788544 2.57440186 -0.01593018 C5.37010324 -0.0290856 8.16523077 -0.02040794 10.9609375 -0.01025391 C12.91097116 -0.01227592 14.86100408 -0.01518843 16.81103516 -0.01895142 C20.89297706 -0.02336873 24.97472169 -0.01696274 29.05664062 -0.00292969 C34.28215234 0.01416178 39.50720176 0.00431743 44.73269653 -0.01364708 C48.75792915 -0.02450088 52.78305263 -0.02103123 56.80828857 -0.0132637 C58.73476212 -0.01126612 60.66124565 -0.01370543 62.58770752 -0.02070236 C65.28269605 -0.02834309 67.97694163 -0.01667601 70.671875 0 C71.46374207 -0.00607269 72.25560913 -0.01214539 73.07147217 -0.0184021 C76.93036708 0.02571036 79.25309335 0.35252752 82.87744141 1.91244507 C83.68874512 2.39943878 84.50004883 2.8864325 85.3359375 3.38818359 C86.87217302 5.95343673 88.17847047 8.3249953 88.62122726 11.31440735 C88.72442355 13.53428185 88.74136673 15.73820791 88.72412109 17.96044922 C88.72937805 18.80024826 88.73463501 19.6400473 88.74005127 20.5052948 C88.75320526 23.26853285 88.74452957 26.03119015 88.734375 28.79443359 C88.73639706 30.72204702 88.7393096 32.6496597 88.74307251 34.57727051 C88.74748963 38.61213482 88.74108448 42.64679955 88.72705078 46.68164062 C88.70995932 51.84662006 88.71980377 57.01113177 88.73776817 62.17609406 C88.74862251 66.15500394 88.74515208 70.13380342 88.7373848 74.11271667 C88.73538736 76.01686153 88.73782601 77.92101649 88.74482346 79.82514954 C88.75246508 82.48900808 88.74079592 85.15211521 88.72412109 87.81591797 C88.73019379 88.5984343 88.73626648 89.38095062 88.74252319 90.18717957 C88.69816413 94.02352529 88.36549219 96.3196268 86.81167603 99.9239502 C86.32468231 100.73714722 85.8376886 101.55034424 85.3359375 102.38818359 C83.6859375 103.37818359 82.0359375 104.36818359 80.3359375 105.38818359 C50.6359375 105.38818359 20.9359375 105.38818359 -9.6640625 105.38818359 C-11.3140625 104.39818359 -12.9640625 103.40818359 -14.6640625 102.38818359 C-16.72163465 98.94300439 -17.65572497 96.47439985 -18.04501343 92.4488678 C-18.06269221 90.94054153 -18.06411755 89.43196713 -18.05224609 87.92358398 C-18.05750305 87.09514481 -18.06276001 86.26670563 -18.06817627 85.41316223 C-18.08133011 82.68719367 -18.07265383 79.96181388 -18.0625 77.23583984 C-18.06452226 75.33304228 -18.06743496 73.43024548 -18.07119751 71.52745056 C-18.07561478 67.54385991 -18.06920974 63.5604714 -18.05517578 59.5769043 C-18.03809595 54.48152324 -18.04792129 49.3866167 -18.06589317 44.29125309 C-18.07675708 40.36291458 -18.07327251 36.43468771 -18.0655098 32.50634575 C-18.06351439 30.62814718 -18.0659438 28.74993835 -18.07294846 26.87175179 C-18.08060459 24.2416225 -18.0689003 21.61225089 -18.05224609 18.98217773 C-18.05831879 18.21260742 -18.06439148 17.44303711 -18.07064819 16.65014648 C-18.01087972 11.53086979 -16.94961721 7.97694619 -14.6640625 3.38818359 C-9.58223593 0.33776294 -5.74225562 -0.04403637 0 0 Z M5.3359375 23.38818359 C5.3359375 42.85818359 5.3359375 62.32818359 5.3359375 82.38818359 C25.1359375 82.38818359 44.9359375 82.38818359 65.3359375 82.38818359 C65.3359375 62.91818359 65.3359375 43.44818359 65.3359375 23.38818359 C45.5359375 23.38818359 25.7359375 23.38818359 5.3359375 23.38818359 Z " fill="#000000" transform="translate(378.6640625,195.61181640625)"/>
<path d="M0 0 C29.7 0 59.4 0 90 0 C91.65 0.99 93.3 1.98 95 3 C96.53623552 5.56525314 97.84253297 7.9368117 98.28528976 10.92622375 C98.38848605 13.14609825 98.40542923 15.35002431 98.38818359 17.57226562 C98.39344055 18.41206467 98.39869751 19.25186371 98.40411377 20.11711121 C98.41726776 22.88034925 98.40859207 25.64300656 98.3984375 28.40625 C98.40045956 30.33386342 98.4033721 32.2614761 98.40713501 34.18908691 C98.41155213 38.22395123 98.40514698 42.25861596 98.39111328 46.29345703 C98.37402182 51.45843646 98.38386627 56.62294818 98.40183067 61.78791046 C98.41268501 65.76682034 98.40921458 69.74561983 98.4014473 73.72453308 C98.39944986 75.62867793 98.40188851 77.5328329 98.40888596 79.43696594 C98.41652758 82.10082448 98.40485842 84.76393161 98.38818359 87.42773438 C98.39425629 88.2102507 98.40032898 88.99276703 98.40658569 89.79899597 C98.36222663 93.6353417 98.02955469 95.93144321 96.47573853 99.5357666 C95.98874481 100.34896362 95.5017511 101.16216064 95 102 C93.35 102.99 91.7 103.98 90 105 C60.3 105 30.6 105 0 105 C-6 101 -6 101 -6.98283386 99.52731323 C-8.4365053 95.91543222 -8.28654665 92.39744668 -8.2746582 88.56298828 C-8.27976913 87.71372772 -8.28488007 86.86446716 -8.29014587 85.98947144 C-8.30404174 83.18301336 -8.30308495 80.37680089 -8.30078125 77.5703125 C-8.30466849 75.61742054 -8.30900322 73.66452942 -8.31376648 71.7116394 C-8.32122891 67.61779033 -8.32093746 63.52402748 -8.31567383 59.43017578 C-8.30988251 54.18893488 -8.32680197 48.94804774 -8.3500185 43.70686531 C-8.3647654 39.6730646 -8.36562617 35.63934886 -8.36250877 31.60552597 C-8.36302161 29.67346369 -8.36825235 27.74139661 -8.37832069 25.8093605 C-8.39068474 23.10460834 -8.38389338 20.40054232 -8.37231445 17.69580078 C-8.37995819 16.90079163 -8.38760193 16.10578247 -8.39547729 15.28668213 C-8.35894327 11.41722305 -8.03918486 9.09115331 -6.47673035 5.45651245 C-5.98940933 4.64586334 -5.50208832 3.83521423 -5 3 C-3.35 2.01 -1.7 1.02 0 0 Z M15 23 C15 42.47 15 61.94 15 82 C34.8 82 54.6 82 75 82 C75 62.53 75 43.06 75 23 C55.2 23 35.4 23 15 23 Z " fill="#000000" transform="translate(565,206)"/>
<path d="M0 0 C29.7 0 59.4 0 90 0 C91.65 0.99 93.3 1.98 95 3 C95.99 4.65 96.98 6.3 98 8 C98 37.37 98 66.74 98 97 C94 103 94 103 92.54473877 103.98580933 C88.84178476 105.46159987 85.20978147 105.26117523 81.28417969 105.22705078 C79.9665715 105.22748886 79.9665715 105.22748886 78.62234497 105.22793579 C75.72208745 105.22654367 72.82208758 105.21098794 69.921875 105.1953125 C67.90977112 105.19158195 65.89766543 105.18873518 63.88555908 105.18673706 C58.59190854 105.1791039 53.29836789 105.15945807 48.00476074 105.1373291 C42.60214728 105.11686389 37.19951605 105.10773389 31.796875 105.09765625 C21.19786841 105.07621193 10.59894334 105.04207975 0 105 C-1.98 103.68 -3.96 102.36 -6 101 C-8.19273503 96.58688714 -8.29008051 92.47460374 -8.2746582 87.64892578 C-8.27976913 86.82063263 -8.28488007 85.99233948 -8.29014587 85.13894653 C-8.30401716 82.40766116 -8.30308683 79.67662886 -8.30078125 76.9453125 C-8.3046698 75.04108588 -8.3090048 73.13686013 -8.31376648 71.2326355 C-8.32122359 67.24311511 -8.32094129 63.25368322 -8.31567383 59.26416016 C-8.30988278 54.16092619 -8.32680389 49.05805558 -8.3500185 43.95488167 C-8.36477767 40.02226659 -8.36562451 36.08973855 -8.36250877 32.15710068 C-8.36302098 30.27610429 -8.36823982 28.3951029 -8.37832069 26.51413345 C-8.39070884 23.87913931 -8.38387909 21.24484687 -8.37231445 18.60986328 C-8.37995819 17.83872192 -8.38760193 17.06758057 -8.39547729 16.27307129 C-8.34593771 11.14549269 -7.29111386 7.59529559 -5 3 C-3.35 2.01 -1.7 1.02 0 0 Z M15 23 C15 42.47 15 61.94 15 82 C34.8 82 54.6 82 75 82 C75 62.53 75 43.06 75 23 C55.2 23 35.4 23 15 23 Z " fill="#000000" transform="translate(369,393)"/>
<path d="M0 0 C0.888013 -0.00014603 1.776026 -0.00029205 2.69094849 -0.0004425 C5.62903274 0.00025471 8.56705376 0.00803822 11.50512695 0.01586914 C13.54108139 0.017734 15.57703628 0.01915758 17.61299133 0.02015686 C22.97402178 0.0239767 28.33502517 0.03380247 33.69604492 0.04486084 C39.165605 0.0550864 44.63516945 0.05965694 50.10473633 0.06469727 C60.83847218 0.07542518 71.57218794 0.09249524 82.3059082 0.11352539 C87.3059082 4.11352539 87.3059082 4.11352539 88.29171753 6.07316589 C89.59968077 9.99420219 89.56944091 13.67560078 89.53295898 17.75927734 C89.53325104 18.61832169 89.53354309 19.47736603 89.53384399 20.36244202 C89.53245441 23.19233417 89.51691066 26.02196067 89.5012207 28.85180664 C89.49748926 30.81764075 89.4946429 32.78347672 89.49264526 34.74931335 C89.4850192 39.91636312 89.46537948 45.08329995 89.4432373 50.25030518 C89.42275679 55.52565992 89.41363883 60.80103295 89.40356445 66.07641602 C89.38213266 76.42216868 89.34800906 86.76783763 89.3059082 97.11352539 C85.3059082 103.11352539 85.3059082 103.11352539 83.85064697 104.09933472 C80.14769296 105.57512526 76.51568968 105.37470062 72.59008789 105.34057617 C71.27247971 105.34101425 71.27247971 105.34101425 69.92825317 105.34146118 C67.02799565 105.34006906 64.12799579 105.32451333 61.2277832 105.30883789 C59.21567933 105.30510734 57.20357363 105.30226057 55.19146729 105.30026245 C49.89781674 105.29262929 44.60427609 105.27298346 39.31066895 105.25085449 C33.90805549 105.23038928 28.50542426 105.22125928 23.1027832 105.21118164 C12.50377661 105.18973732 1.90485155 105.15560514 -8.6940918 105.11352539 C-14.6940918 101.11352539 -14.6940918 101.11352539 -15.67791748 99.64183044 C-17.13212506 96.02367133 -16.97229805 92.50061061 -16.95288086 88.66064453 C-16.9563855 87.80977768 -16.95989014 86.95891083 -16.96350098 86.08226013 C-16.97229976 83.27098418 -16.96647514 80.45996014 -16.9597168 77.64868164 C-16.9610641 75.69339449 -16.96300519 73.73810766 -16.96551514 71.78282166 C-16.96846399 67.68477184 -16.96417684 63.58680921 -16.95483398 59.48876953 C-16.94344716 54.23852873 -16.94999558 48.98849258 -16.96197891 43.73825932 C-16.96921035 39.70021527 -16.96690354 35.66221963 -16.96172333 31.62417412 C-16.96039 29.68850111 -16.96202347 27.7528237 -16.96668243 25.81715584 C-16.97176787 23.10991932 -16.96400869 20.40301277 -16.95288086 17.69580078 C-16.95692932 16.89719635 -16.96097778 16.09859192 -16.96514893 15.27578735 C-16.93353106 11.1184621 -16.618575 7.82921332 -14.6940918 4.11352539 C-13.2565918 2.36352539 -13.2565918 2.36352539 -11.6940918 1.11352539 C-7.7838874 -0.18987608 -4.07468625 -0.0174373 0 0 Z M59.77636719 22.20532227 C57.97975647 22.23577637 57.97975647 22.23577637 56.14685059 22.2668457 C54.87805054 22.2884375 53.60925049 22.3100293 52.30200195 22.33227539 C51.14317505 22.35193359 49.98434814 22.3715918 48.79040527 22.3918457 C44.44140468 22.46564658 40.0924066 22.53959504 35.7434082 22.61352539 C26.0290332 22.77852539 16.3146582 22.94352539 6.3059082 23.11352539 C6.3059082 42.58352539 6.3059082 62.05352539 6.3059082 82.11352539 C26.1059082 82.11352539 45.9059082 82.11352539 66.3059082 82.11352539 C66.3059082 62.31352539 66.3059082 42.51352539 66.3059082 22.11352539 C64.12937055 22.11352539 61.95247839 22.16836072 59.77636719 22.20532227 Z " fill="#000000" transform="translate(573.694091796875,392.886474609375)"/>
</svg>
